<svg width="201" height="304" viewBox="0 0 201 304" fill="none" xmlns="http://www.w3.org/2000/svg">
<g filter="url(#filter0_i_44_562)">
<rect x="64.6455" y="0.478516" width="65.0093" height="90.8349" rx="32.5047" fill="#C4C4C4"/>
<path d="M115.407 30.3107C115.407 40.3933 107.233 48.5668 97.1506 48.5668C87.068 48.5668 78.8945 40.3933 78.8945 30.3107C78.8945 20.2282 87.068 12.0547 97.1506 12.0547C107.233 12.0547 115.407 20.2282 115.407 30.3107Z" fill="#6B738F"/>
<path d="M94.0107 17.3772C95.5438 15.2128 98.7559 15.2128 100.289 17.3772C101.145 18.5849 102.617 19.1947 104.076 18.9457C106.69 18.4993 108.962 20.7706 108.515 23.3852C108.266 24.844 108.876 26.3164 110.084 27.1718C112.248 28.705 112.248 31.917 110.084 33.4502C108.876 34.3056 108.266 35.778 108.515 37.2368C108.962 39.8514 106.69 42.1227 104.076 41.6763C102.617 41.4273 101.145 42.0371 100.289 43.2448C98.7559 45.4092 95.5438 45.4092 94.0107 43.2448C93.1552 42.0371 91.6829 41.4273 90.2241 41.6763C87.6095 42.1227 85.3382 39.8514 85.7846 37.2368C86.0336 35.778 85.4238 34.3056 84.2161 33.4502C82.0517 31.917 82.0517 28.705 84.2161 27.1718C85.4238 26.3164 86.0336 24.844 85.7846 23.3852C85.3382 20.7706 87.6095 18.4993 90.2241 18.9457C91.6829 19.1947 93.1552 18.5849 94.0107 17.3772Z" fill="#C4C4C4"/>
<path fill-rule="evenodd" clip-rule="evenodd" d="M92.6973 88.6406V203.965H101.603V88.6406H92.6973Z" fill="#6B738F"/>
<path fill-rule="evenodd" clip-rule="evenodd" d="M162.605 93.0933H31.6959V199.513H162.605V93.0933ZM27.2432 88.6406V203.965H167.058V88.6406H27.2432Z" fill="#353F58"/>
<path d="M17.8916 176.805H177.298V257.844C177.298 276.287 162.346 291.239 143.903 291.239H51.2868C32.8432 291.239 17.8916 276.287 17.8916 257.844V176.805Z" fill="#8783A0"/>
<path d="M51.2918 291.238H148.796L152.808 303.706H47.2793L51.2918 291.238Z" fill="#E7EAC6"/>
<path fill-rule="evenodd" clip-rule="evenodd" d="M200.899 105.561C200.899 76.0514 156.044 52.1289 100.713 52.1289C45.382 52.1289 0.527344 76.0514 0.527344 105.561H200.899Z" fill="#E2E0CD"/>
<path fill-rule="evenodd" clip-rule="evenodd" d="M177.299 105.561C177.299 76.0514 142.412 52.1289 99.3772 52.1289C56.342 52.1289 21.4551 76.0514 21.4551 105.561H177.299Z" fill="#8783A0"/>
<path fill-rule="evenodd" clip-rule="evenodd" d="M160.824 105.561C160.824 76.0514 132.416 52.1289 97.3728 52.1289C62.3298 52.1289 33.9219 76.0514 33.9219 105.561H160.824Z" fill="#E2E0CD"/>
<path fill-rule="evenodd" clip-rule="evenodd" d="M58.8564 105.561H136.779C136.779 76.0514 119.335 52.1289 97.8175 52.1289C76.2999 52.1289 58.8564 76.0514 58.8564 105.561Z" fill="#8783A0"/>
<path fill-rule="evenodd" clip-rule="evenodd" d="M79.3398 105.561H114.961C114.961 76.0514 106.987 52.1289 97.1506 52.1289C87.314 52.1289 79.3398 76.0514 79.3398 105.561Z" fill="#E2E0CD"/>
<path d="M114.96 52.351C114.96 55.6708 106.986 58.3621 97.1496 58.3621C87.313 58.3621 79.3389 55.6708 79.3389 52.351C79.3389 49.0311 87.313 46.3398 97.1496 46.3398C106.986 46.3398 114.96 49.0311 114.96 52.351Z" fill="#E7EAC6"/>
<path d="M64.9816 227.583C68.5821 226.955 71.0679 223.465 70.5498 219.782C70.13 216.798 67.6608 214.886 64.7832 214.672C64.9886 209.693 67.9983 205.785 67.9983 205.785L64.699 203.954C60.6327 208.63 56.4375 215.151 57.4112 222.072C57.9292 225.754 61.3179 228.221 64.9816 227.583ZM80.9627 224.798C84.5632 224.17 87.1122 220.668 86.5942 216.986C86.1743 214.002 83.7051 212.09 80.7643 211.887C81.033 206.896 84.0427 202.989 84.0427 202.989L80.7433 201.157C76.6139 205.845 72.545 212.344 73.5187 219.265C74.0367 222.947 77.2991 225.436 80.9627 224.798Z" fill="white"/>
<path d="M115.153 241.155C111.725 239.889 108.037 241.734 106.975 245.298C106.114 248.186 107.5 251.153 110.006 252.828C107.712 257.165 103.452 259.139 103.452 259.139L105.601 262.457C111.169 260.351 117.431 256.592 119.426 249.894C120.488 246.33 118.642 242.443 115.153 241.155ZM130.372 246.772C126.943 245.507 123.315 247.374 122.253 250.938C121.393 253.826 122.779 256.793 125.224 258.446C122.99 262.805 118.73 264.779 118.73 264.779L120.88 268.096C126.388 265.969 132.769 262.254 134.765 255.556C135.827 251.992 133.86 248.06 130.372 246.772Z" fill="white"/>
</g>
<defs>
<filter id="filter0_i_44_562" x="-13.277" y="0.478516" width="214.175" height="303.229" filterUnits="userSpaceOnUse" color-interpolation-filters="sRGB">
<feFlood flood-opacity="0" result="BackgroundImageFix"/>
<feBlend mode="normal" in="SourceGraphic" in2="BackgroundImageFix" result="shape"/>
<feColorMatrix in="SourceAlpha" type="matrix" values="0 0 0 0 0 0 0 0 0 0 0 0 0 0 0 0 0 0 127 0" result="hardAlpha"/>
<feOffset dx="-13.8033"/>
<feGaussianBlur stdDeviation="8.90539"/>
<feComposite in2="hardAlpha" operator="arithmetic" k2="-1" k3="1"/>
<feColorMatrix type="matrix" values="0 0 0 0 0 0 0 0 0 0 0 0 0 0 0 0 0 0 0.25 0"/>
<feBlend mode="normal" in2="shape" result="effect1_innerShadow_44_562"/>
</filter>
</defs>
</svg>
