<svg width="201" height="304" viewBox="0 0 201 304" fill="none" xmlns="http://www.w3.org/2000/svg">
<g filter="url(#filter0_i_44_506)">
<rect x="64.584" y="0.0566406" width="65.0093" height="90.8349" rx="32.5047" fill="#C4C4C4"/>
<path d="M115.344 29.8908C115.344 39.9733 107.171 48.1469 97.0881 48.1469C87.0055 48.1469 78.832 39.9733 78.832 29.8908C78.832 19.8083 87.0055 11.6348 97.0881 11.6348C107.171 11.6348 115.344 19.8083 115.344 29.8908Z" fill="#6B738F"/>
<path d="M93.9491 16.9573C95.4823 14.7929 98.6944 14.7929 100.228 16.9573V16.9573C101.083 18.165 102.555 18.7748 104.014 18.5258V18.5258C106.629 18.0794 108.9 20.3507 108.454 22.9653V22.9653C108.205 24.4241 108.814 25.8964 110.022 26.7519V26.7519C112.187 28.285 112.187 31.4971 110.022 33.0303V33.0303C108.814 33.8857 108.205 35.3581 108.454 36.8169V36.8169C108.9 39.4315 106.629 41.7028 104.014 41.2564V41.2564C102.555 41.0073 101.083 41.6172 100.228 42.8248V42.8248C98.6944 44.9893 95.4823 44.9893 93.9491 42.8248V42.8248C93.0937 41.6172 91.6214 41.0073 90.1625 41.2564V41.2564C87.5479 41.7028 85.2767 39.4315 85.723 36.8169V36.8169C85.9721 35.3581 85.3622 33.8857 84.1546 33.0303V33.0303C81.9901 31.4971 81.9901 28.285 84.1546 26.7519V26.7519C85.3622 25.8964 85.9721 24.4241 85.723 22.9653V22.9653C85.2767 20.3507 87.5479 18.0794 90.1625 18.5258V18.5258C91.6214 18.7748 93.0937 18.165 93.9491 16.9573V16.9573Z" fill="#C4C4C4"/>
<path fill-rule="evenodd" clip-rule="evenodd" d="M92.6357 88.2188V203.544H101.541V88.2188H92.6357Z" fill="#6B738F"/>
<path fill-rule="evenodd" clip-rule="evenodd" d="M162.543 92.6714H31.6334V199.091H162.543V92.6714ZM27.1807 88.2188V203.544H166.995V88.2188H27.1807Z" fill="#353F58"/>
<path d="M17.8301 176.383H177.236V257.422C177.236 275.866 162.285 290.817 143.841 290.817H51.2253C32.7817 290.817 17.8301 275.865 17.8301 257.422V176.383Z" fill="#5C5B80"/>
<path d="M51.2303 290.816H148.734L152.747 303.284H47.2178L51.2303 290.816Z" fill="#E7EAC6"/>
<path fill-rule="evenodd" clip-rule="evenodd" d="M200.836 105.137C200.836 75.6275 155.981 51.7051 100.65 51.7051C45.3195 51.7051 0.464844 75.6275 0.464844 105.137H200.836Z" fill="#E2E0CD"/>
<path fill-rule="evenodd" clip-rule="evenodd" d="M177.237 105.137C177.237 75.6275 142.35 51.7051 99.3147 51.7051C56.2795 51.7051 21.3926 75.6275 21.3926 105.137H177.237Z" fill="#5C5B80"/>
<path fill-rule="evenodd" clip-rule="evenodd" d="M160.761 105.137C160.761 75.6275 132.353 51.7051 97.3103 51.7051C62.2673 51.7051 33.8594 75.6275 33.8594 105.137H160.761Z" fill="#E2E0CD"/>
<path fill-rule="evenodd" clip-rule="evenodd" d="M58.7949 105.137H136.717C136.717 75.6275 119.274 51.7051 97.756 51.7051C76.2384 51.7051 58.7949 75.6275 58.7949 105.137Z" fill="#5C5B80"/>
<path fill-rule="evenodd" clip-rule="evenodd" d="M79.2773 105.137H114.899C114.899 75.6275 106.925 51.7051 97.0881 51.7051C87.2515 51.7051 79.2773 75.6275 79.2773 105.137Z" fill="#E2E0CD"/>
<path d="M114.899 51.9291C114.899 55.249 106.925 57.9402 97.0881 57.9402C87.2515 57.9402 79.2773 55.249 79.2773 51.9291C79.2773 48.6092 87.2515 45.918 97.0881 45.918C106.925 45.918 114.899 48.6092 114.899 51.9291Z" fill="#E7EAC6"/>
<path d="M130 233.5C130 252.002 115.002 267 96.5 267C77.9985 267 63 252.002 63 233.5C63 214.998 77.9985 200 96.5 200C115.002 200 130 214.998 130 233.5Z" fill="white"/>
<path fill-rule="evenodd" clip-rule="evenodd" d="M96.5 263.636C113.144 263.636 126.636 250.144 126.636 233.5C126.636 216.856 113.144 203.364 96.5 203.364C79.8564 203.364 66.3641 216.856 66.3641 233.5C66.3641 250.144 79.8564 263.636 96.5 263.636ZM96.5 267C115.002 267 130 252.002 130 233.5C130 214.998 115.002 200 96.5 200C77.9985 200 63 214.998 63 233.5C63 252.002 77.9985 267 96.5 267Z" fill="black"/>
<path d="M130 233.5C130 252.002 115.002 267 96.5 267C77.9985 267 63 252.002 63 233.5C63 214.998 77.9985 200 96.5 200C115.002 200 130 214.998 130 233.5Z" fill="white"/>
<path fill-rule="evenodd" clip-rule="evenodd" d="M96.5 263.636C113.144 263.636 126.636 250.144 126.636 233.5C126.636 216.856 113.144 203.364 96.5 203.364C79.8564 203.364 66.3641 216.856 66.3641 233.5C66.3641 250.144 79.8564 263.636 96.5 263.636ZM96.5 267C115.002 267 130 252.002 130 233.5C130 214.998 115.002 200 96.5 200C77.9985 200 63 214.998 63 233.5C63 252.002 77.9985 267 96.5 267Z" fill="black"/>
<path fill-rule="evenodd" clip-rule="evenodd" d="M95.3389 232.474C95.9143 231.824 96.9079 231.763 97.558 232.339L111.33 244.53C111.98 245.106 112.041 246.099 111.465 246.749C110.89 247.399 109.896 247.46 109.246 246.884L95.474 234.693C94.8239 234.118 94.7634 233.124 95.3389 232.474Z" fill="black"/>
<path fill-rule="evenodd" clip-rule="evenodd" d="M96.5154 235.088C95.6472 235.088 94.9434 234.384 94.9434 233.516V209.967C94.9434 209.099 95.6472 208.395 96.5154 208.395C97.3836 208.395 98.0874 209.099 98.0874 209.967V233.516C98.0874 234.384 97.3836 235.088 96.5154 235.088Z" fill="black"/>
</g>
<defs>
<filter id="filter0_i_44_506" x="-13.3385" y="0.0566406" width="214.174" height="303.229" filterUnits="userSpaceOnUse" color-interpolation-filters="sRGB">
<feFlood flood-opacity="0" result="BackgroundImageFix"/>
<feBlend mode="normal" in="SourceGraphic" in2="BackgroundImageFix" result="shape"/>
<feColorMatrix in="SourceAlpha" type="matrix" values="0 0 0 0 0 0 0 0 0 0 0 0 0 0 0 0 0 0 127 0" result="hardAlpha"/>
<feOffset dx="-13.8033"/>
<feGaussianBlur stdDeviation="8.90539"/>
<feComposite in2="hardAlpha" operator="arithmetic" k2="-1" k3="1"/>
<feColorMatrix type="matrix" values="0 0 0 0 0 0 0 0 0 0 0 0 0 0 0 0 0 0 0.25 0"/>
<feBlend mode="normal" in2="shape" result="effect1_innerShadow_44_506"/>
</filter>
</defs>
</svg>
