<svg width="2832" height="2832" viewBox="0 0 2832 2832" fill="none" xmlns="http://www.w3.org/2000/svg">
<g clip-path="url(#clip0_52_18)">
<path d="M44.8359 1416.11H1220.04" stroke="white" stroke-width="10"/>
<path d="M1611.74 1416.11H2786.95" stroke="white" stroke-width="10"/>
<path d="M1415.95 2787.13V1611.92" stroke="white" stroke-width="10"/>
<path d="M1415.95 1220.22V45.0175" stroke="white" stroke-width="10"/>
<path d="M446.461 2385.51L1277.46 1554.51" stroke="white" stroke-width="10"/>
<path d="M1554.56 1277.5L2385.56 446.506" stroke="white" stroke-width="10"/>
<path d="M2385.45 2385.51L1554.45 1554.51" stroke="white" stroke-width="10"/>
<path d="M1277.53 1277.5L446.537 446.506" stroke="white" stroke-width="10"/>
<path d="M149.188 1940.71L1234.93 1490.98" stroke="white" stroke-width="10"/>
<path d="M1596.8 1341.03L2682.54 891.299" stroke="white" stroke-width="10"/>
<path d="M1940.66 2682.7L1490.93 1596.95" stroke="white" stroke-width="10"/>
<path d="M1340.98 1234.99L891.246 149.244" stroke="white" stroke-width="10"/>
<path d="M891.25 2682.7L1340.98 1596.95" stroke="white" stroke-width="10"/>
<path d="M1490.94 1235.09L1940.67 149.342" stroke="white" stroke-width="10"/>
<path d="M2682.73 1940.71L1596.99 1490.98" stroke="white" stroke-width="10"/>
<path d="M1235.12 1341.03L149.379 891.3" stroke="white" stroke-width="10"/>
<g filter="url(#filter0_ii_52_18)">
<circle cx="1416" cy="1416" r="1356" stroke="#434E78" stroke-width="120"/>
</g>
<circle cx="1416.5" cy="1416.5" r="580.5" stroke="white" stroke-width="34"/>
<circle cx="1416.5" cy="1416.5" r="957.5" stroke="white" stroke-width="34"/>
<path d="M1392.07 1317.87C1397.23 1295.03 1429.77 1295.03 1434.93 1317.87V1317.87C1438.27 1332.67 1455.26 1339.71 1468.09 1331.6V1331.6C1487.89 1319.1 1510.9 1342.11 1498.4 1361.91V1361.91C1490.29 1374.74 1497.33 1391.73 1512.13 1395.07V1395.07C1534.97 1400.23 1534.97 1432.77 1512.13 1437.93V1437.93C1497.33 1441.27 1490.29 1458.26 1498.4 1471.09V1471.09C1510.9 1490.89 1487.89 1513.9 1468.09 1501.4V1501.4C1455.26 1493.29 1438.27 1500.33 1434.93 1515.13V1515.13C1429.77 1537.97 1397.23 1537.97 1392.07 1515.13V1515.13C1388.73 1500.33 1371.74 1493.29 1358.91 1501.4V1501.4C1339.11 1513.9 1316.1 1490.89 1328.6 1471.09V1471.09C1336.71 1458.26 1329.67 1441.27 1314.87 1437.93V1437.93C1292.03 1432.77 1292.03 1400.23 1314.87 1395.07V1395.07C1329.67 1391.73 1336.71 1374.74 1328.6 1361.91V1361.91C1316.1 1342.11 1339.11 1319.1 1358.91 1331.6V1331.6C1371.74 1339.71 1388.73 1332.67 1392.07 1317.87V1317.87Z" fill="white"/>
<g filter="url(#filter1_dd_52_18)">
<mask id="path-21-inside-1_52_18" fill="white">
<path fill-rule="evenodd" clip-rule="evenodd" d="M1413.82 48H1414.18C1427.73 48.0017 1438.72 58.9891 1438.72 72.5409C1438.71 86.0927 1427.73 97.0772 1414.17 97.0755H1413.83C1400.27 97.0772 1389.29 86.0927 1389.28 72.5409C1389.28 58.9891 1400.27 48.0017 1413.82 48ZM1297.17 77.291C1298.57 90.7705 1288.78 102.832 1275.3 104.23L1274.95 104.266C1261.47 105.669 1249.41 95.8783 1248.01 82.3993C1246.6 68.9202 1256.39 56.8565 1269.87 55.4543L1270.23 55.4169C1283.71 54.0182 1295.77 63.8116 1297.17 77.291ZM1530.83 77.291C1532.23 63.8116 1544.29 54.0182 1557.77 55.417L1558.13 55.4543C1571.61 56.8565 1581.4 68.9202 1579.99 82.3993C1578.59 95.8784 1566.53 105.669 1553.05 104.266L1552.7 104.23C1539.22 102.832 1529.43 90.7705 1530.83 77.291ZM1156.89 96.7186C1159.69 109.977 1151.21 122.998 1137.96 125.801L1137.62 125.873C1124.36 128.679 1111.33 120.207 1108.53 106.949C1105.72 93.6906 1114.19 80.6678 1127.45 77.8613L1127.8 77.7867C1141.06 74.9837 1154.08 83.4598 1156.89 96.7186ZM1671.11 96.7186C1673.92 83.4598 1686.94 74.9837 1700.2 77.7867L1700.55 77.8614C1713.81 80.6678 1722.28 93.6907 1719.47 106.949C1716.67 120.207 1703.64 128.679 1690.38 125.873L1690.04 125.801C1676.79 122.998 1668.31 109.977 1671.11 96.7186ZM1019.43 130.766C1023.61 143.655 1016.55 157.496 1003.66 161.68L1003.33 161.787C990.444 165.974 976.602 158.92 972.414 146.032C968.227 133.143 975.281 119.3 988.17 115.113L988.513 115.002C1001.4 110.818 1015.24 117.876 1019.43 130.766ZM1808.57 130.766C1812.76 117.876 1826.6 110.818 1839.49 115.002L1839.83 115.113C1852.72 119.3 1859.77 133.143 1855.59 146.032C1851.4 158.92 1837.56 165.975 1824.67 161.787L1824.34 161.68C1811.45 157.496 1804.39 143.655 1808.57 130.766ZM886.327 179.1C891.845 191.478 886.283 205.985 873.906 211.502L873.589 211.644C861.212 217.164 846.704 211.607 841.183 199.23C835.663 186.854 841.22 172.346 853.597 166.825L853.925 166.678C866.303 161.161 880.81 166.722 886.327 179.1ZM1941.67 179.1C1947.19 166.722 1961.7 161.161 1974.08 166.678L1974.4 166.825C1986.78 172.346 1992.34 186.854 1986.82 199.231C1981.3 211.607 1966.79 217.164 1954.41 211.644L1954.09 211.502C1941.72 205.985 1936.16 191.478 1941.67 179.1ZM759.054 241.161C765.84 252.892 761.83 267.902 750.1 274.688L749.8 274.861C738.071 281.65 723.059 277.644 716.271 265.915C709.482 254.186 713.488 239.175 725.217 232.387L725.528 232.207C737.259 225.421 752.269 229.43 759.054 241.161ZM2068.95 241.161C2075.73 229.431 2090.74 225.422 2102.47 232.207L2102.78 232.387C2114.51 239.175 2118.52 254.187 2111.73 265.916C2104.94 277.645 2089.93 281.65 2078.2 274.861L2077.9 274.688C2066.17 267.902 2062.16 252.892 2068.95 241.161ZM638.982 316.209C646.955 327.168 644.535 342.514 633.577 350.487L633.297 350.691C622.34 358.667 606.993 356.251 599.017 345.295C591.041 334.339 593.457 318.991 604.413 311.016L604.704 310.804C615.662 302.831 631.009 305.251 638.982 316.209ZM2189.02 316.21C2196.99 305.251 2212.34 302.831 2223.3 310.804L2223.59 311.016C2234.54 318.992 2236.96 334.339 2228.98 345.295C2221.01 356.251 2205.66 358.667 2194.7 350.692L2194.42 350.488C2183.47 342.515 2181.05 327.168 2189.02 316.21ZM527.388 403.37C536.457 413.44 535.647 428.955 525.578 438.025L525.32 438.257C515.253 447.329 499.738 446.523 490.665 436.456C481.593 426.389 482.399 410.874 492.466 401.801L492.733 401.561C502.802 392.491 518.318 393.301 527.388 403.37ZM2300.61 403.371C2309.68 393.301 2325.2 392.491 2335.27 401.561L2335.53 401.801C2345.6 410.874 2346.41 426.389 2337.33 436.456C2328.26 446.523 2312.75 447.329 2302.68 438.257L2302.42 438.025C2292.35 428.955 2291.54 413.44 2300.61 403.371ZM425.456 501.665C435.523 510.738 436.329 526.253 427.257 536.32L427.025 536.578C417.955 546.647 402.44 547.457 392.371 538.387C382.301 529.317 381.491 513.802 390.561 503.733L390.801 503.466C399.874 493.399 415.389 492.593 425.456 501.665ZM2402.54 501.665C2412.61 492.593 2428.13 493.399 2437.2 503.466L2437.44 503.733C2446.51 513.802 2445.7 529.318 2435.63 538.388C2425.56 547.457 2410.05 546.647 2400.98 536.578L2400.74 536.32C2391.67 526.253 2392.48 510.738 2402.54 501.665ZM334.295 610.017C345.251 617.993 347.667 633.34 339.692 644.296L339.488 644.577C331.515 655.535 316.168 657.955 305.21 649.982C294.251 642.009 291.831 626.662 299.804 615.704L300.016 615.413C307.992 604.457 323.339 602.041 334.295 610.017ZM2493.7 610.017C2504.66 602.041 2520.01 604.457 2527.98 615.413L2528.2 615.704C2536.17 626.662 2533.75 642.009 2522.79 649.982C2511.83 657.955 2496.49 655.535 2488.51 644.577L2488.31 644.297C2480.33 633.34 2482.75 617.993 2493.7 610.017ZM254.916 727.271C266.645 734.059 270.65 749.07 263.861 760.799L263.688 761.099C256.902 772.83 241.892 776.839 230.161 770.054C218.431 763.269 214.422 748.258 221.207 736.528L221.387 736.216C228.175 724.487 243.187 720.482 254.916 727.271ZM2573.08 727.271C2584.81 720.482 2599.82 724.488 2606.61 736.217L2606.79 736.528C2613.58 748.259 2609.57 763.269 2597.84 770.054C2586.11 776.84 2571.1 772.83 2564.31 761.1L2564.14 760.8C2557.35 749.071 2561.36 734.059 2573.08 727.271ZM188.231 852.183C200.607 857.704 206.164 872.212 200.644 884.589L200.502 884.906C194.985 897.283 180.478 902.845 168.1 897.327C155.722 891.81 150.161 877.303 155.678 864.925L155.825 864.596C161.346 852.22 175.854 846.662 188.231 852.183ZM2639.77 852.183C2652.15 846.663 2666.65 852.22 2672.18 864.597L2672.32 864.925C2677.84 877.303 2672.28 891.81 2659.9 897.327C2647.52 902.845 2633.02 897.283 2627.5 884.906L2627.36 884.589C2621.84 872.212 2627.39 857.704 2639.77 852.183ZM135.032 983.414C147.92 987.601 154.975 1001.44 150.787 1014.33L150.68 1014.66C146.496 1027.55 132.655 1034.61 119.766 1030.43C106.876 1026.24 99.8181 1012.4 104.002 999.513L104.113 999.17C108.3 986.281 122.143 979.227 135.032 983.414ZM2692.97 983.414C2705.86 979.227 2719.7 986.281 2723.89 999.17L2724 999.513C2728.18 1012.4 2721.12 1026.24 2708.23 1030.43C2695.34 1034.61 2681.5 1027.55 2677.32 1014.66L2677.21 1014.33C2673.03 1001.44 2680.08 987.602 2692.97 983.414ZM95.9487 1119.53C109.207 1122.33 117.679 1135.36 114.873 1148.61L114.801 1148.96C111.998 1162.21 98.9774 1170.69 85.7186 1167.89C72.4598 1165.08 63.9837 1152.06 66.7867 1138.8L66.8614 1138.45C69.6678 1125.19 82.6907 1116.72 95.9487 1119.53ZM2732.05 1119.53C2745.31 1116.72 2758.33 1125.19 2761.14 1138.45L2761.21 1138.8C2764.02 1152.06 2755.54 1165.08 2742.28 1167.89C2729.02 1170.69 2716 1162.21 2713.2 1148.96L2713.13 1148.62C2710.32 1135.36 2718.79 1122.33 2732.05 1119.53ZM71.3993 1259.01C84.8784 1260.41 94.6686 1272.47 93.2663 1285.95L93.2303 1286.3C91.8316 1299.78 79.7705 1309.57 66.291 1308.17C52.8116 1306.77 43.0182 1294.71 44.417 1281.23L44.4543 1280.87C45.8565 1267.39 57.9202 1257.6 71.3993 1259.01ZM2756.6 1259.01C2770.08 1257.6 2782.14 1267.39 2783.55 1280.87L2783.58 1281.23C2784.98 1294.71 2775.19 1306.77 2761.71 1308.17C2748.23 1309.57 2736.17 1299.78 2734.77 1286.3L2734.73 1285.95C2733.33 1272.47 2743.12 1260.41 2756.6 1259.01ZM61.5409 1400.28C75.0927 1400.29 86.0772 1411.27 86.0755 1424.83V1425.17C86.0772 1438.73 75.0927 1449.71 61.5409 1449.72C47.9891 1449.72 37.0017 1438.73 37 1425.18V1424.82C37.0017 1411.27 47.9891 1400.28 61.5409 1400.28ZM2766.46 1400.28C2780.01 1400.28 2791 1411.27 2791 1424.82V1425.18C2791 1438.73 2780.01 1449.72 2766.46 1449.72C2752.91 1449.71 2741.92 1438.73 2741.92 1425.17V1424.83C2741.92 1411.27 2752.91 1400.29 2766.46 1400.28ZM66.291 1541.83C79.7705 1540.43 91.8316 1550.22 93.2303 1563.7L93.2663 1564.05C94.6685 1577.53 84.8783 1589.59 71.3993 1590.99C57.9202 1592.4 45.8565 1582.61 44.4543 1569.13L44.4169 1568.77C43.0182 1555.29 52.8116 1543.23 66.291 1541.83ZM2761.71 1541.83C2775.19 1543.23 2784.98 1555.29 2783.58 1568.77L2783.55 1569.13C2782.14 1582.61 2770.08 1592.4 2756.6 1590.99C2743.12 1589.59 2733.33 1577.53 2734.73 1564.05L2734.77 1563.7C2736.17 1550.22 2748.23 1540.43 2761.71 1541.83ZM85.7186 1682.11C98.9773 1679.31 111.998 1687.79 114.801 1701.04L114.873 1701.38C117.679 1714.64 109.207 1727.67 95.9487 1730.47C82.6906 1733.28 69.6678 1724.81 66.8613 1711.55L66.7867 1711.2C63.9837 1697.94 72.4598 1684.92 85.7186 1682.11ZM2742.28 1682.11C2755.54 1684.92 2764.02 1697.94 2761.21 1711.2L2761.14 1711.55C2758.33 1724.81 2745.31 1733.28 2732.05 1730.47C2718.79 1727.67 2710.32 1714.64 2713.13 1701.38L2713.2 1701.04C2716 1687.79 2729.02 1679.31 2742.28 1682.11ZM119.766 1819.57C132.655 1815.39 146.496 1822.45 150.68 1835.34L150.787 1835.67C154.974 1848.56 147.92 1862.4 135.032 1866.59C122.143 1870.77 108.3 1863.72 104.113 1850.83L104.002 1850.49C99.8181 1837.6 106.876 1823.76 119.766 1819.57ZM2708.23 1819.57C2721.12 1823.76 2728.18 1837.6 2724 1850.49L2723.89 1850.83C2719.7 1863.72 2705.86 1870.77 2692.97 1866.59C2680.08 1862.4 2673.03 1848.56 2677.21 1835.67L2677.32 1835.34C2681.5 1822.45 2695.34 1815.39 2708.23 1819.57ZM168.1 1952.67C180.478 1947.16 194.985 1952.72 200.502 1965.09L200.644 1965.41C206.164 1977.79 200.607 1992.3 188.23 1997.82C175.854 2003.34 161.346 1997.78 155.825 1985.4L155.678 1985.07C150.161 1972.7 155.722 1958.19 168.1 1952.67ZM2659.9 1952.67C2672.28 1958.19 2677.84 1972.7 2672.32 1985.08L2672.17 1985.4C2666.65 1997.78 2652.15 2003.34 2639.77 1997.82C2627.39 1992.3 2621.84 1977.79 2627.36 1965.41L2627.5 1965.09C2633.02 1952.72 2647.52 1947.16 2659.9 1952.67ZM230.161 2079.95C241.892 2073.16 256.902 2077.17 263.688 2088.9L263.861 2089.2C270.65 2100.93 266.644 2115.94 254.915 2122.73C243.186 2129.52 228.175 2125.51 221.387 2113.78L221.207 2113.47C214.421 2101.74 218.43 2086.73 230.161 2079.95ZM2597.84 2079.95C2609.57 2086.73 2613.58 2101.74 2606.79 2113.47L2606.61 2113.78C2599.82 2125.51 2584.81 2129.52 2573.08 2122.73C2561.36 2115.94 2557.35 2100.93 2564.14 2089.2L2564.31 2088.9C2571.1 2077.17 2586.11 2073.16 2597.84 2079.95ZM305.209 2200.02C316.168 2192.04 331.514 2194.46 339.487 2205.42L339.691 2205.7C347.667 2216.66 345.251 2232.01 334.295 2239.98C323.339 2247.96 307.991 2245.54 300.016 2234.59L299.804 2234.3C291.831 2223.34 294.251 2207.99 305.209 2200.02ZM2522.79 2200.02C2533.75 2207.99 2536.17 2223.34 2528.2 2234.3L2527.98 2234.59C2520.01 2245.54 2504.66 2247.96 2493.7 2239.98C2482.75 2232.01 2480.33 2216.66 2488.31 2205.7L2488.51 2205.42C2496.49 2194.47 2511.83 2192.05 2522.79 2200.02ZM392.37 2311.61C402.44 2302.54 417.955 2303.35 427.025 2313.42L427.257 2313.68C436.329 2323.75 435.523 2339.26 425.456 2348.33C415.389 2357.41 399.874 2356.6 390.801 2346.53L390.561 2346.27C381.491 2336.2 382.301 2320.68 392.37 2311.61ZM2435.63 2311.61C2445.7 2320.68 2446.51 2336.2 2437.44 2346.27L2437.2 2346.53C2428.13 2356.6 2412.61 2357.41 2402.54 2348.33C2392.48 2339.26 2391.67 2323.75 2400.74 2313.68L2400.98 2313.42C2410.04 2303.35 2425.56 2302.54 2435.63 2311.61ZM490.665 2413.54C499.738 2403.48 515.253 2402.67 525.32 2411.74L525.578 2411.98C535.647 2421.04 536.457 2436.56 527.387 2446.63C518.317 2456.7 502.802 2457.51 492.733 2448.44L492.466 2448.2C482.399 2439.13 481.593 2423.61 490.665 2413.54ZM2337.33 2413.54C2346.41 2423.61 2345.6 2439.13 2335.53 2448.2L2335.27 2448.44C2325.2 2457.51 2309.68 2456.7 2300.61 2446.63C2291.54 2436.56 2292.35 2421.05 2302.42 2411.98L2302.68 2411.74C2312.75 2402.67 2328.26 2403.48 2337.33 2413.54ZM599.017 2504.7C606.993 2493.75 622.34 2491.33 633.296 2499.31L633.577 2499.51C644.535 2507.49 646.955 2522.83 638.982 2533.79C631.009 2544.75 615.662 2547.17 604.704 2539.2L604.413 2538.98C593.457 2531.01 591.041 2515.66 599.017 2504.7ZM2228.98 2504.7C2236.96 2515.66 2234.54 2531.01 2223.59 2538.98L2223.3 2539.2C2212.34 2547.17 2196.99 2544.75 2189.02 2533.79C2181.04 2522.83 2183.46 2507.49 2194.42 2499.51L2194.7 2499.31C2205.66 2491.33 2221.01 2493.75 2228.98 2504.7ZM716.271 2584.08C723.059 2572.36 738.07 2568.35 749.799 2575.14L750.099 2575.31C761.83 2582.1 765.839 2597.11 759.054 2608.84C752.269 2620.57 737.258 2624.58 725.528 2617.79L725.216 2617.61C713.487 2610.82 709.482 2595.81 716.271 2584.08ZM2111.73 2584.08C2118.52 2595.81 2114.51 2610.82 2102.78 2617.61L2102.47 2617.79C2090.74 2624.58 2075.73 2620.57 2068.95 2608.84C2062.16 2597.11 2066.17 2582.1 2077.9 2575.31L2078.2 2575.14C2089.93 2568.35 2104.94 2572.36 2111.73 2584.08ZM841.183 2650.77C846.704 2638.39 861.212 2632.84 873.589 2638.36L873.906 2638.5C886.283 2644.02 891.845 2658.52 886.327 2670.9C880.81 2683.28 866.303 2688.84 853.925 2683.32L853.596 2683.17C841.22 2677.65 835.662 2663.15 841.183 2650.77ZM1986.82 2650.77C1992.34 2663.15 1986.78 2677.65 1974.4 2683.18L1974.07 2683.32C1961.7 2688.84 1947.19 2683.28 1941.67 2670.9C1936.16 2658.52 1941.72 2644.02 1954.09 2638.5L1954.41 2638.36C1966.79 2632.84 1981.3 2638.39 1986.82 2650.77ZM972.414 2703.97C976.601 2691.08 990.444 2684.03 1003.33 2688.21L1003.66 2688.32C1016.55 2692.5 1023.61 2706.34 1019.43 2719.23C1015.24 2732.12 1001.4 2739.18 988.513 2735L988.17 2734.89C975.281 2730.7 968.227 2716.86 972.414 2703.97ZM1855.59 2703.97C1859.77 2716.86 1852.72 2730.7 1839.83 2734.89L1839.49 2735C1826.6 2739.18 1812.76 2732.12 1808.57 2719.23C1804.39 2706.34 1811.45 2692.5 1824.34 2688.32L1824.67 2688.21C1837.56 2684.03 1851.4 2691.08 1855.59 2703.97ZM1108.53 2743.05C1111.33 2729.79 1124.36 2721.32 1137.61 2724.13L1137.96 2724.2C1151.21 2727 1159.69 2740.02 1156.89 2753.28C1154.08 2766.54 1141.06 2775.02 1127.8 2772.21L1127.45 2772.14C1114.19 2769.33 1105.72 2756.31 1108.53 2743.05ZM1719.47 2743.05C1722.28 2756.31 1713.81 2769.33 1700.55 2772.14L1700.2 2772.21C1686.94 2775.02 1673.92 2766.54 1671.11 2753.28C1668.31 2740.02 1676.79 2727 1690.04 2724.2L1690.38 2724.13C1703.64 2721.32 1716.67 2729.79 1719.47 2743.05ZM1248.01 2767.6C1249.41 2754.12 1261.47 2744.33 1274.95 2745.73L1275.3 2745.77C1288.78 2747.17 1298.57 2759.23 1297.17 2772.71C1295.77 2786.19 1283.71 2795.98 1270.23 2794.58L1269.87 2794.55C1256.39 2793.14 1246.6 2781.08 1248.01 2767.6ZM1579.99 2767.6C1581.4 2781.08 1571.61 2793.14 1558.13 2794.55L1557.77 2794.58C1544.29 2795.98 1532.23 2786.19 1530.83 2772.71C1529.43 2759.23 1539.22 2747.17 1552.7 2745.77L1553.05 2745.73C1566.53 2744.33 1578.59 2754.12 1579.99 2767.6ZM1389.28 2777.46C1389.29 2763.91 1400.27 2752.92 1413.83 2752.92H1414.17C1427.73 2752.92 1438.71 2763.91 1438.72 2777.46C1438.72 2791.01 1427.73 2802 1414.18 2802H1413.82C1400.27 2802 1389.28 2791.01 1389.28 2777.46Z"/>
</mask>
<path fill-rule="evenodd" clip-rule="evenodd" d="M1413.82 48H1414.18C1427.73 48.0017 1438.72 58.9891 1438.72 72.5409C1438.71 86.0927 1427.73 97.0772 1414.17 97.0755H1413.83C1400.27 97.0772 1389.29 86.0927 1389.28 72.5409C1389.28 58.9891 1400.27 48.0017 1413.82 48ZM1297.17 77.291C1298.57 90.7705 1288.78 102.832 1275.3 104.23L1274.95 104.266C1261.47 105.669 1249.41 95.8783 1248.01 82.3993C1246.6 68.9202 1256.39 56.8565 1269.87 55.4543L1270.23 55.4169C1283.71 54.0182 1295.77 63.8116 1297.17 77.291ZM1530.83 77.291C1532.23 63.8116 1544.29 54.0182 1557.77 55.417L1558.13 55.4543C1571.61 56.8565 1581.4 68.9202 1579.99 82.3993C1578.59 95.8784 1566.53 105.669 1553.05 104.266L1552.7 104.23C1539.22 102.832 1529.43 90.7705 1530.83 77.291ZM1156.89 96.7186C1159.69 109.977 1151.21 122.998 1137.96 125.801L1137.62 125.873C1124.36 128.679 1111.33 120.207 1108.53 106.949C1105.72 93.6906 1114.19 80.6678 1127.45 77.8613L1127.8 77.7867C1141.06 74.9837 1154.08 83.4598 1156.89 96.7186ZM1671.11 96.7186C1673.92 83.4598 1686.94 74.9837 1700.2 77.7867L1700.55 77.8614C1713.81 80.6678 1722.28 93.6907 1719.47 106.949C1716.67 120.207 1703.64 128.679 1690.38 125.873L1690.04 125.801C1676.79 122.998 1668.31 109.977 1671.11 96.7186ZM1019.43 130.766C1023.61 143.655 1016.55 157.496 1003.66 161.68L1003.33 161.787C990.444 165.974 976.602 158.92 972.414 146.032C968.227 133.143 975.281 119.3 988.17 115.113L988.513 115.002C1001.4 110.818 1015.24 117.876 1019.43 130.766ZM1808.57 130.766C1812.76 117.876 1826.6 110.818 1839.49 115.002L1839.83 115.113C1852.72 119.3 1859.77 133.143 1855.59 146.032C1851.4 158.92 1837.56 165.975 1824.67 161.787L1824.34 161.68C1811.45 157.496 1804.39 143.655 1808.57 130.766ZM886.327 179.1C891.845 191.478 886.283 205.985 873.906 211.502L873.589 211.644C861.212 217.164 846.704 211.607 841.183 199.23C835.663 186.854 841.22 172.346 853.597 166.825L853.925 166.678C866.303 161.161 880.81 166.722 886.327 179.1ZM1941.67 179.1C1947.19 166.722 1961.7 161.161 1974.08 166.678L1974.4 166.825C1986.78 172.346 1992.34 186.854 1986.82 199.231C1981.3 211.607 1966.79 217.164 1954.41 211.644L1954.09 211.502C1941.72 205.985 1936.16 191.478 1941.67 179.1ZM759.054 241.161C765.84 252.892 761.83 267.902 750.1 274.688L749.8 274.861C738.071 281.65 723.059 277.644 716.271 265.915C709.482 254.186 713.488 239.175 725.217 232.387L725.528 232.207C737.259 225.421 752.269 229.43 759.054 241.161ZM2068.95 241.161C2075.73 229.431 2090.74 225.422 2102.47 232.207L2102.78 232.387C2114.51 239.175 2118.52 254.187 2111.73 265.916C2104.94 277.645 2089.93 281.65 2078.2 274.861L2077.9 274.688C2066.17 267.902 2062.16 252.892 2068.95 241.161ZM638.982 316.209C646.955 327.168 644.535 342.514 633.577 350.487L633.297 350.691C622.34 358.667 606.993 356.251 599.017 345.295C591.041 334.339 593.457 318.991 604.413 311.016L604.704 310.804C615.662 302.831 631.009 305.251 638.982 316.209ZM2189.02 316.21C2196.99 305.251 2212.34 302.831 2223.3 310.804L2223.59 311.016C2234.54 318.992 2236.96 334.339 2228.98 345.295C2221.01 356.251 2205.66 358.667 2194.7 350.692L2194.42 350.488C2183.47 342.515 2181.05 327.168 2189.02 316.21ZM527.388 403.37C536.457 413.44 535.647 428.955 525.578 438.025L525.32 438.257C515.253 447.329 499.738 446.523 490.665 436.456C481.593 426.389 482.399 410.874 492.466 401.801L492.733 401.561C502.802 392.491 518.318 393.301 527.388 403.37ZM2300.61 403.371C2309.68 393.301 2325.2 392.491 2335.27 401.561L2335.53 401.801C2345.6 410.874 2346.41 426.389 2337.33 436.456C2328.26 446.523 2312.75 447.329 2302.68 438.257L2302.42 438.025C2292.35 428.955 2291.54 413.44 2300.61 403.371ZM425.456 501.665C435.523 510.738 436.329 526.253 427.257 536.32L427.025 536.578C417.955 546.647 402.44 547.457 392.371 538.387C382.301 529.317 381.491 513.802 390.561 503.733L390.801 503.466C399.874 493.399 415.389 492.593 425.456 501.665ZM2402.54 501.665C2412.61 492.593 2428.13 493.399 2437.2 503.466L2437.44 503.733C2446.51 513.802 2445.7 529.318 2435.63 538.388C2425.56 547.457 2410.05 546.647 2400.98 536.578L2400.74 536.32C2391.67 526.253 2392.48 510.738 2402.54 501.665ZM334.295 610.017C345.251 617.993 347.667 633.34 339.692 644.296L339.488 644.577C331.515 655.535 316.168 657.955 305.21 649.982C294.251 642.009 291.831 626.662 299.804 615.704L300.016 615.413C307.992 604.457 323.339 602.041 334.295 610.017ZM2493.7 610.017C2504.66 602.041 2520.01 604.457 2527.98 615.413L2528.2 615.704C2536.17 626.662 2533.75 642.009 2522.79 649.982C2511.83 657.955 2496.49 655.535 2488.51 644.577L2488.31 644.297C2480.33 633.34 2482.75 617.993 2493.7 610.017ZM254.916 727.271C266.645 734.059 270.65 749.07 263.861 760.799L263.688 761.099C256.902 772.83 241.892 776.839 230.161 770.054C218.431 763.269 214.422 748.258 221.207 736.528L221.387 736.216C228.175 724.487 243.187 720.482 254.916 727.271ZM2573.08 727.271C2584.81 720.482 2599.82 724.488 2606.61 736.217L2606.79 736.528C2613.58 748.259 2609.57 763.269 2597.84 770.054C2586.11 776.84 2571.1 772.83 2564.31 761.1L2564.14 760.8C2557.35 749.071 2561.36 734.059 2573.08 727.271ZM188.231 852.183C200.607 857.704 206.164 872.212 200.644 884.589L200.502 884.906C194.985 897.283 180.478 902.845 168.1 897.327C155.722 891.81 150.161 877.303 155.678 864.925L155.825 864.596C161.346 852.22 175.854 846.662 188.231 852.183ZM2639.77 852.183C2652.15 846.663 2666.65 852.22 2672.18 864.597L2672.32 864.925C2677.84 877.303 2672.28 891.81 2659.9 897.327C2647.52 902.845 2633.02 897.283 2627.5 884.906L2627.36 884.589C2621.84 872.212 2627.39 857.704 2639.77 852.183ZM135.032 983.414C147.92 987.601 154.975 1001.44 150.787 1014.33L150.68 1014.66C146.496 1027.55 132.655 1034.61 119.766 1030.43C106.876 1026.24 99.8181 1012.4 104.002 999.513L104.113 999.17C108.3 986.281 122.143 979.227 135.032 983.414ZM2692.97 983.414C2705.86 979.227 2719.7 986.281 2723.89 999.17L2724 999.513C2728.18 1012.4 2721.12 1026.24 2708.23 1030.43C2695.34 1034.61 2681.5 1027.55 2677.32 1014.66L2677.21 1014.33C2673.03 1001.44 2680.08 987.602 2692.97 983.414ZM95.9487 1119.53C109.207 1122.33 117.679 1135.36 114.873 1148.61L114.801 1148.96C111.998 1162.21 98.9774 1170.69 85.7186 1167.89C72.4598 1165.08 63.9837 1152.06 66.7867 1138.8L66.8614 1138.45C69.6678 1125.19 82.6907 1116.72 95.9487 1119.53ZM2732.05 1119.53C2745.31 1116.72 2758.33 1125.19 2761.14 1138.45L2761.21 1138.8C2764.02 1152.06 2755.54 1165.08 2742.28 1167.89C2729.02 1170.69 2716 1162.21 2713.2 1148.96L2713.13 1148.62C2710.32 1135.36 2718.79 1122.33 2732.05 1119.53ZM71.3993 1259.01C84.8784 1260.41 94.6686 1272.47 93.2663 1285.95L93.2303 1286.3C91.8316 1299.78 79.7705 1309.57 66.291 1308.17C52.8116 1306.77 43.0182 1294.71 44.417 1281.23L44.4543 1280.87C45.8565 1267.39 57.9202 1257.6 71.3993 1259.01ZM2756.6 1259.01C2770.08 1257.6 2782.14 1267.39 2783.55 1280.87L2783.58 1281.23C2784.98 1294.71 2775.19 1306.77 2761.71 1308.17C2748.23 1309.57 2736.17 1299.78 2734.77 1286.3L2734.73 1285.95C2733.33 1272.47 2743.12 1260.41 2756.6 1259.01ZM61.5409 1400.28C75.0927 1400.29 86.0772 1411.27 86.0755 1424.83V1425.17C86.0772 1438.73 75.0927 1449.71 61.5409 1449.72C47.9891 1449.72 37.0017 1438.73 37 1425.18V1424.82C37.0017 1411.27 47.9891 1400.28 61.5409 1400.28ZM2766.46 1400.28C2780.01 1400.28 2791 1411.27 2791 1424.82V1425.18C2791 1438.73 2780.01 1449.72 2766.46 1449.72C2752.91 1449.71 2741.92 1438.73 2741.92 1425.17V1424.83C2741.92 1411.27 2752.91 1400.29 2766.46 1400.28ZM66.291 1541.83C79.7705 1540.43 91.8316 1550.22 93.2303 1563.7L93.2663 1564.05C94.6685 1577.53 84.8783 1589.59 71.3993 1590.99C57.9202 1592.4 45.8565 1582.61 44.4543 1569.13L44.4169 1568.77C43.0182 1555.29 52.8116 1543.23 66.291 1541.83ZM2761.71 1541.83C2775.19 1543.23 2784.98 1555.29 2783.58 1568.77L2783.55 1569.13C2782.14 1582.61 2770.08 1592.4 2756.6 1590.99C2743.12 1589.59 2733.33 1577.53 2734.73 1564.05L2734.77 1563.7C2736.17 1550.22 2748.23 1540.43 2761.71 1541.83ZM85.7186 1682.11C98.9773 1679.31 111.998 1687.79 114.801 1701.04L114.873 1701.38C117.679 1714.64 109.207 1727.67 95.9487 1730.47C82.6906 1733.28 69.6678 1724.81 66.8613 1711.55L66.7867 1711.2C63.9837 1697.94 72.4598 1684.92 85.7186 1682.11ZM2742.28 1682.11C2755.54 1684.92 2764.02 1697.94 2761.21 1711.2L2761.14 1711.55C2758.33 1724.81 2745.31 1733.28 2732.05 1730.47C2718.79 1727.67 2710.32 1714.64 2713.13 1701.38L2713.2 1701.04C2716 1687.79 2729.02 1679.31 2742.28 1682.11ZM119.766 1819.57C132.655 1815.39 146.496 1822.45 150.68 1835.34L150.787 1835.67C154.974 1848.56 147.92 1862.4 135.032 1866.59C122.143 1870.77 108.3 1863.72 104.113 1850.83L104.002 1850.49C99.8181 1837.6 106.876 1823.76 119.766 1819.57ZM2708.23 1819.57C2721.12 1823.76 2728.18 1837.6 2724 1850.49L2723.89 1850.83C2719.7 1863.72 2705.86 1870.77 2692.97 1866.59C2680.08 1862.4 2673.03 1848.56 2677.21 1835.67L2677.32 1835.34C2681.5 1822.45 2695.34 1815.39 2708.23 1819.57ZM168.1 1952.67C180.478 1947.16 194.985 1952.72 200.502 1965.09L200.644 1965.41C206.164 1977.79 200.607 1992.3 188.23 1997.82C175.854 2003.34 161.346 1997.78 155.825 1985.4L155.678 1985.07C150.161 1972.7 155.722 1958.19 168.1 1952.67ZM2659.9 1952.67C2672.28 1958.19 2677.84 1972.7 2672.32 1985.08L2672.17 1985.4C2666.65 1997.78 2652.15 2003.34 2639.77 1997.82C2627.39 1992.3 2621.84 1977.79 2627.36 1965.41L2627.5 1965.09C2633.02 1952.72 2647.52 1947.16 2659.9 1952.67ZM230.161 2079.95C241.892 2073.16 256.902 2077.17 263.688 2088.9L263.861 2089.2C270.65 2100.93 266.644 2115.94 254.915 2122.73C243.186 2129.52 228.175 2125.51 221.387 2113.78L221.207 2113.47C214.421 2101.74 218.43 2086.73 230.161 2079.95ZM2597.84 2079.95C2609.57 2086.73 2613.58 2101.74 2606.79 2113.47L2606.61 2113.78C2599.82 2125.51 2584.81 2129.52 2573.08 2122.73C2561.36 2115.94 2557.35 2100.93 2564.14 2089.2L2564.31 2088.9C2571.1 2077.17 2586.11 2073.16 2597.84 2079.95ZM305.209 2200.02C316.168 2192.04 331.514 2194.46 339.487 2205.42L339.691 2205.7C347.667 2216.66 345.251 2232.01 334.295 2239.98C323.339 2247.96 307.991 2245.54 300.016 2234.59L299.804 2234.3C291.831 2223.34 294.251 2207.99 305.209 2200.02ZM2522.79 2200.02C2533.75 2207.99 2536.17 2223.34 2528.2 2234.3L2527.98 2234.59C2520.01 2245.54 2504.66 2247.96 2493.7 2239.98C2482.75 2232.01 2480.33 2216.66 2488.31 2205.7L2488.51 2205.42C2496.49 2194.47 2511.83 2192.05 2522.79 2200.02ZM392.37 2311.61C402.44 2302.54 417.955 2303.35 427.025 2313.42L427.257 2313.68C436.329 2323.75 435.523 2339.26 425.456 2348.33C415.389 2357.41 399.874 2356.6 390.801 2346.53L390.561 2346.27C381.491 2336.2 382.301 2320.68 392.37 2311.61ZM2435.63 2311.61C2445.7 2320.68 2446.51 2336.2 2437.44 2346.27L2437.2 2346.53C2428.13 2356.6 2412.61 2357.41 2402.54 2348.33C2392.48 2339.26 2391.67 2323.75 2400.74 2313.68L2400.98 2313.42C2410.04 2303.35 2425.56 2302.54 2435.63 2311.61ZM490.665 2413.54C499.738 2403.48 515.253 2402.67 525.32 2411.74L525.578 2411.98C535.647 2421.04 536.457 2436.56 527.387 2446.63C518.317 2456.7 502.802 2457.51 492.733 2448.44L492.466 2448.2C482.399 2439.13 481.593 2423.61 490.665 2413.54ZM2337.33 2413.54C2346.41 2423.61 2345.6 2439.13 2335.53 2448.2L2335.27 2448.44C2325.2 2457.51 2309.68 2456.7 2300.61 2446.63C2291.54 2436.56 2292.35 2421.05 2302.42 2411.98L2302.68 2411.74C2312.75 2402.67 2328.26 2403.48 2337.33 2413.54ZM599.017 2504.7C606.993 2493.75 622.34 2491.33 633.296 2499.31L633.577 2499.51C644.535 2507.49 646.955 2522.83 638.982 2533.79C631.009 2544.75 615.662 2547.17 604.704 2539.2L604.413 2538.98C593.457 2531.01 591.041 2515.66 599.017 2504.7ZM2228.98 2504.7C2236.96 2515.66 2234.54 2531.01 2223.59 2538.98L2223.3 2539.2C2212.34 2547.17 2196.99 2544.75 2189.02 2533.79C2181.04 2522.83 2183.46 2507.49 2194.42 2499.51L2194.7 2499.31C2205.66 2491.33 2221.01 2493.75 2228.98 2504.7ZM716.271 2584.08C723.059 2572.36 738.07 2568.35 749.799 2575.14L750.099 2575.31C761.83 2582.1 765.839 2597.11 759.054 2608.84C752.269 2620.57 737.258 2624.58 725.528 2617.79L725.216 2617.61C713.487 2610.82 709.482 2595.81 716.271 2584.08ZM2111.73 2584.08C2118.52 2595.81 2114.51 2610.82 2102.78 2617.61L2102.47 2617.79C2090.74 2624.58 2075.73 2620.57 2068.95 2608.84C2062.16 2597.11 2066.17 2582.1 2077.9 2575.31L2078.2 2575.14C2089.93 2568.35 2104.94 2572.36 2111.73 2584.08ZM841.183 2650.77C846.704 2638.39 861.212 2632.84 873.589 2638.36L873.906 2638.5C886.283 2644.02 891.845 2658.52 886.327 2670.9C880.81 2683.28 866.303 2688.84 853.925 2683.32L853.596 2683.17C841.22 2677.65 835.662 2663.15 841.183 2650.77ZM1986.82 2650.77C1992.34 2663.15 1986.78 2677.65 1974.4 2683.18L1974.07 2683.32C1961.7 2688.84 1947.19 2683.28 1941.67 2670.9C1936.16 2658.52 1941.72 2644.02 1954.09 2638.5L1954.41 2638.36C1966.79 2632.84 1981.3 2638.39 1986.82 2650.77ZM972.414 2703.97C976.601 2691.08 990.444 2684.03 1003.33 2688.21L1003.66 2688.32C1016.55 2692.5 1023.61 2706.34 1019.43 2719.23C1015.24 2732.12 1001.4 2739.18 988.513 2735L988.17 2734.89C975.281 2730.7 968.227 2716.86 972.414 2703.97ZM1855.59 2703.97C1859.77 2716.86 1852.72 2730.7 1839.83 2734.89L1839.49 2735C1826.6 2739.18 1812.76 2732.12 1808.57 2719.23C1804.39 2706.34 1811.45 2692.5 1824.34 2688.32L1824.67 2688.21C1837.56 2684.03 1851.4 2691.08 1855.59 2703.97ZM1108.53 2743.05C1111.33 2729.79 1124.36 2721.32 1137.61 2724.13L1137.96 2724.2C1151.21 2727 1159.69 2740.02 1156.89 2753.28C1154.08 2766.54 1141.06 2775.02 1127.8 2772.21L1127.45 2772.14C1114.19 2769.33 1105.72 2756.31 1108.53 2743.05ZM1719.47 2743.05C1722.28 2756.31 1713.81 2769.33 1700.55 2772.14L1700.2 2772.21C1686.94 2775.02 1673.92 2766.54 1671.11 2753.28C1668.31 2740.02 1676.79 2727 1690.04 2724.2L1690.38 2724.13C1703.64 2721.32 1716.67 2729.79 1719.47 2743.05ZM1248.01 2767.6C1249.41 2754.12 1261.47 2744.33 1274.95 2745.73L1275.3 2745.77C1288.78 2747.17 1298.57 2759.23 1297.17 2772.71C1295.77 2786.19 1283.71 2795.98 1270.23 2794.58L1269.87 2794.55C1256.39 2793.14 1246.6 2781.08 1248.01 2767.6ZM1579.99 2767.6C1581.4 2781.08 1571.61 2793.14 1558.13 2794.55L1557.77 2794.58C1544.29 2795.98 1532.23 2786.19 1530.83 2772.71C1529.43 2759.23 1539.22 2747.17 1552.7 2745.77L1553.05 2745.73C1566.53 2744.33 1578.59 2754.12 1579.99 2767.6ZM1389.28 2777.46C1389.29 2763.91 1400.27 2752.92 1413.83 2752.92H1414.17C1427.73 2752.92 1438.71 2763.91 1438.72 2777.46C1438.72 2791.01 1427.73 2802 1414.18 2802H1413.82C1400.27 2802 1389.28 2791.01 1389.28 2777.46Z" fill="white"/>
<path fill-rule="evenodd" clip-rule="evenodd" d="M1413.82 48H1414.18C1427.73 48.0017 1438.72 58.9891 1438.72 72.5409C1438.71 86.0927 1427.73 97.0772 1414.17 97.0755H1413.83C1400.27 97.0772 1389.29 86.0927 1389.28 72.5409C1389.28 58.9891 1400.27 48.0017 1413.82 48ZM1297.17 77.291C1298.57 90.7705 1288.78 102.832 1275.3 104.23L1274.95 104.266C1261.47 105.669 1249.41 95.8783 1248.01 82.3993C1246.6 68.9202 1256.39 56.8565 1269.87 55.4543L1270.23 55.4169C1283.71 54.0182 1295.77 63.8116 1297.17 77.291ZM1530.83 77.291C1532.23 63.8116 1544.29 54.0182 1557.77 55.417L1558.13 55.4543C1571.61 56.8565 1581.4 68.9202 1579.99 82.3993C1578.59 95.8784 1566.53 105.669 1553.05 104.266L1552.7 104.23C1539.22 102.832 1529.43 90.7705 1530.83 77.291ZM1156.89 96.7186C1159.69 109.977 1151.21 122.998 1137.96 125.801L1137.62 125.873C1124.36 128.679 1111.33 120.207 1108.53 106.949C1105.72 93.6906 1114.19 80.6678 1127.45 77.8613L1127.8 77.7867C1141.06 74.9837 1154.08 83.4598 1156.89 96.7186ZM1671.11 96.7186C1673.92 83.4598 1686.94 74.9837 1700.2 77.7867L1700.55 77.8614C1713.81 80.6678 1722.28 93.6907 1719.47 106.949C1716.67 120.207 1703.64 128.679 1690.38 125.873L1690.04 125.801C1676.79 122.998 1668.31 109.977 1671.11 96.7186ZM1019.43 130.766C1023.61 143.655 1016.55 157.496 1003.66 161.68L1003.33 161.787C990.444 165.974 976.602 158.92 972.414 146.032C968.227 133.143 975.281 119.3 988.17 115.113L988.513 115.002C1001.4 110.818 1015.24 117.876 1019.43 130.766ZM1808.57 130.766C1812.76 117.876 1826.6 110.818 1839.49 115.002L1839.83 115.113C1852.72 119.3 1859.77 133.143 1855.59 146.032C1851.4 158.92 1837.56 165.975 1824.67 161.787L1824.34 161.68C1811.45 157.496 1804.39 143.655 1808.57 130.766ZM886.327 179.1C891.845 191.478 886.283 205.985 873.906 211.502L873.589 211.644C861.212 217.164 846.704 211.607 841.183 199.23C835.663 186.854 841.22 172.346 853.597 166.825L853.925 166.678C866.303 161.161 880.81 166.722 886.327 179.1ZM1941.67 179.1C1947.19 166.722 1961.7 161.161 1974.08 166.678L1974.4 166.825C1986.78 172.346 1992.34 186.854 1986.82 199.231C1981.3 211.607 1966.79 217.164 1954.41 211.644L1954.09 211.502C1941.72 205.985 1936.16 191.478 1941.67 179.1ZM759.054 241.161C765.84 252.892 761.83 267.902 750.1 274.688L749.8 274.861C738.071 281.65 723.059 277.644 716.271 265.915C709.482 254.186 713.488 239.175 725.217 232.387L725.528 232.207C737.259 225.421 752.269 229.43 759.054 241.161ZM2068.95 241.161C2075.73 229.431 2090.74 225.422 2102.47 232.207L2102.78 232.387C2114.51 239.175 2118.52 254.187 2111.73 265.916C2104.94 277.645 2089.93 281.65 2078.2 274.861L2077.9 274.688C2066.17 267.902 2062.16 252.892 2068.95 241.161ZM638.982 316.209C646.955 327.168 644.535 342.514 633.577 350.487L633.297 350.691C622.34 358.667 606.993 356.251 599.017 345.295C591.041 334.339 593.457 318.991 604.413 311.016L604.704 310.804C615.662 302.831 631.009 305.251 638.982 316.209ZM2189.02 316.21C2196.99 305.251 2212.34 302.831 2223.3 310.804L2223.59 311.016C2234.54 318.992 2236.96 334.339 2228.98 345.295C2221.01 356.251 2205.66 358.667 2194.7 350.692L2194.42 350.488C2183.47 342.515 2181.05 327.168 2189.02 316.21ZM527.388 403.37C536.457 413.44 535.647 428.955 525.578 438.025L525.32 438.257C515.253 447.329 499.738 446.523 490.665 436.456C481.593 426.389 482.399 410.874 492.466 401.801L492.733 401.561C502.802 392.491 518.318 393.301 527.388 403.37ZM2300.61 403.371C2309.68 393.301 2325.2 392.491 2335.27 401.561L2335.53 401.801C2345.6 410.874 2346.41 426.389 2337.33 436.456C2328.26 446.523 2312.75 447.329 2302.68 438.257L2302.42 438.025C2292.35 428.955 2291.54 413.44 2300.61 403.371ZM425.456 501.665C435.523 510.738 436.329 526.253 427.257 536.32L427.025 536.578C417.955 546.647 402.44 547.457 392.371 538.387C382.301 529.317 381.491 513.802 390.561 503.733L390.801 503.466C399.874 493.399 415.389 492.593 425.456 501.665ZM2402.54 501.665C2412.61 492.593 2428.13 493.399 2437.2 503.466L2437.44 503.733C2446.51 513.802 2445.7 529.318 2435.63 538.388C2425.56 547.457 2410.05 546.647 2400.98 536.578L2400.74 536.32C2391.67 526.253 2392.48 510.738 2402.54 501.665ZM334.295 610.017C345.251 617.993 347.667 633.34 339.692 644.296L339.488 644.577C331.515 655.535 316.168 657.955 305.21 649.982C294.251 642.009 291.831 626.662 299.804 615.704L300.016 615.413C307.992 604.457 323.339 602.041 334.295 610.017ZM2493.7 610.017C2504.66 602.041 2520.01 604.457 2527.98 615.413L2528.2 615.704C2536.17 626.662 2533.75 642.009 2522.79 649.982C2511.83 657.955 2496.49 655.535 2488.51 644.577L2488.31 644.297C2480.33 633.34 2482.75 617.993 2493.7 610.017ZM254.916 727.271C266.645 734.059 270.65 749.07 263.861 760.799L263.688 761.099C256.902 772.83 241.892 776.839 230.161 770.054C218.431 763.269 214.422 748.258 221.207 736.528L221.387 736.216C228.175 724.487 243.187 720.482 254.916 727.271ZM2573.08 727.271C2584.81 720.482 2599.82 724.488 2606.61 736.217L2606.79 736.528C2613.58 748.259 2609.57 763.269 2597.84 770.054C2586.11 776.84 2571.1 772.83 2564.31 761.1L2564.14 760.8C2557.35 749.071 2561.36 734.059 2573.08 727.271ZM188.231 852.183C200.607 857.704 206.164 872.212 200.644 884.589L200.502 884.906C194.985 897.283 180.478 902.845 168.1 897.327C155.722 891.81 150.161 877.303 155.678 864.925L155.825 864.596C161.346 852.22 175.854 846.662 188.231 852.183ZM2639.77 852.183C2652.15 846.663 2666.65 852.22 2672.18 864.597L2672.32 864.925C2677.84 877.303 2672.28 891.81 2659.9 897.327C2647.52 902.845 2633.02 897.283 2627.5 884.906L2627.36 884.589C2621.84 872.212 2627.39 857.704 2639.77 852.183ZM135.032 983.414C147.92 987.601 154.975 1001.44 150.787 1014.33L150.68 1014.66C146.496 1027.55 132.655 1034.61 119.766 1030.43C106.876 1026.24 99.8181 1012.4 104.002 999.513L104.113 999.17C108.3 986.281 122.143 979.227 135.032 983.414ZM2692.97 983.414C2705.86 979.227 2719.7 986.281 2723.89 999.17L2724 999.513C2728.18 1012.4 2721.12 1026.24 2708.23 1030.43C2695.34 1034.61 2681.5 1027.55 2677.32 1014.66L2677.21 1014.33C2673.03 1001.44 2680.08 987.602 2692.97 983.414ZM95.9487 1119.53C109.207 1122.33 117.679 1135.36 114.873 1148.61L114.801 1148.96C111.998 1162.21 98.9774 1170.69 85.7186 1167.89C72.4598 1165.08 63.9837 1152.06 66.7867 1138.8L66.8614 1138.45C69.6678 1125.19 82.6907 1116.72 95.9487 1119.53ZM2732.05 1119.53C2745.31 1116.72 2758.33 1125.19 2761.14 1138.45L2761.21 1138.8C2764.02 1152.06 2755.54 1165.08 2742.28 1167.89C2729.02 1170.69 2716 1162.21 2713.2 1148.96L2713.13 1148.62C2710.32 1135.36 2718.79 1122.33 2732.05 1119.53ZM71.3993 1259.01C84.8784 1260.41 94.6686 1272.47 93.2663 1285.95L93.2303 1286.3C91.8316 1299.78 79.7705 1309.57 66.291 1308.17C52.8116 1306.77 43.0182 1294.71 44.417 1281.23L44.4543 1280.87C45.8565 1267.39 57.9202 1257.6 71.3993 1259.01ZM2756.6 1259.01C2770.08 1257.6 2782.14 1267.39 2783.55 1280.87L2783.58 1281.23C2784.98 1294.71 2775.19 1306.77 2761.71 1308.17C2748.23 1309.57 2736.17 1299.78 2734.77 1286.3L2734.73 1285.95C2733.33 1272.47 2743.12 1260.41 2756.6 1259.01ZM61.5409 1400.28C75.0927 1400.29 86.0772 1411.27 86.0755 1424.83V1425.17C86.0772 1438.73 75.0927 1449.71 61.5409 1449.72C47.9891 1449.72 37.0017 1438.73 37 1425.18V1424.82C37.0017 1411.27 47.9891 1400.28 61.5409 1400.28ZM2766.46 1400.28C2780.01 1400.28 2791 1411.27 2791 1424.82V1425.18C2791 1438.73 2780.01 1449.72 2766.46 1449.72C2752.91 1449.71 2741.92 1438.73 2741.92 1425.17V1424.83C2741.92 1411.27 2752.91 1400.29 2766.46 1400.28ZM66.291 1541.83C79.7705 1540.43 91.8316 1550.22 93.2303 1563.7L93.2663 1564.05C94.6685 1577.53 84.8783 1589.59 71.3993 1590.99C57.9202 1592.4 45.8565 1582.61 44.4543 1569.13L44.4169 1568.77C43.0182 1555.29 52.8116 1543.23 66.291 1541.83ZM2761.71 1541.83C2775.19 1543.23 2784.98 1555.29 2783.58 1568.77L2783.55 1569.13C2782.14 1582.61 2770.08 1592.4 2756.6 1590.99C2743.12 1589.59 2733.33 1577.53 2734.73 1564.05L2734.77 1563.7C2736.17 1550.22 2748.23 1540.43 2761.71 1541.83ZM85.7186 1682.11C98.9773 1679.31 111.998 1687.79 114.801 1701.04L114.873 1701.38C117.679 1714.64 109.207 1727.67 95.9487 1730.47C82.6906 1733.28 69.6678 1724.81 66.8613 1711.55L66.7867 1711.2C63.9837 1697.94 72.4598 1684.92 85.7186 1682.11ZM2742.28 1682.11C2755.54 1684.92 2764.02 1697.94 2761.21 1711.2L2761.14 1711.55C2758.33 1724.81 2745.31 1733.28 2732.05 1730.47C2718.79 1727.67 2710.32 1714.64 2713.13 1701.38L2713.2 1701.04C2716 1687.79 2729.02 1679.31 2742.28 1682.11ZM119.766 1819.57C132.655 1815.39 146.496 1822.45 150.68 1835.34L150.787 1835.67C154.974 1848.56 147.92 1862.4 135.032 1866.59C122.143 1870.77 108.3 1863.72 104.113 1850.83L104.002 1850.49C99.8181 1837.6 106.876 1823.76 119.766 1819.57ZM2708.23 1819.57C2721.12 1823.76 2728.18 1837.6 2724 1850.49L2723.89 1850.83C2719.7 1863.72 2705.86 1870.77 2692.97 1866.59C2680.08 1862.4 2673.03 1848.56 2677.21 1835.67L2677.32 1835.34C2681.5 1822.45 2695.34 1815.39 2708.23 1819.57ZM168.1 1952.67C180.478 1947.16 194.985 1952.72 200.502 1965.09L200.644 1965.41C206.164 1977.79 200.607 1992.3 188.23 1997.82C175.854 2003.34 161.346 1997.78 155.825 1985.4L155.678 1985.07C150.161 1972.7 155.722 1958.19 168.1 1952.67ZM2659.9 1952.67C2672.28 1958.19 2677.84 1972.7 2672.32 1985.08L2672.17 1985.4C2666.65 1997.78 2652.15 2003.34 2639.77 1997.82C2627.39 1992.3 2621.84 1977.79 2627.36 1965.41L2627.5 1965.09C2633.02 1952.72 2647.52 1947.16 2659.9 1952.67ZM230.161 2079.95C241.892 2073.16 256.902 2077.17 263.688 2088.9L263.861 2089.2C270.65 2100.93 266.644 2115.94 254.915 2122.73C243.186 2129.52 228.175 2125.51 221.387 2113.78L221.207 2113.47C214.421 2101.74 218.43 2086.73 230.161 2079.95ZM2597.84 2079.95C2609.57 2086.73 2613.58 2101.74 2606.79 2113.47L2606.61 2113.78C2599.82 2125.51 2584.81 2129.52 2573.08 2122.73C2561.36 2115.94 2557.35 2100.93 2564.14 2089.2L2564.31 2088.9C2571.1 2077.17 2586.11 2073.16 2597.84 2079.95ZM305.209 2200.02C316.168 2192.04 331.514 2194.46 339.487 2205.42L339.691 2205.7C347.667 2216.66 345.251 2232.01 334.295 2239.98C323.339 2247.96 307.991 2245.54 300.016 2234.59L299.804 2234.3C291.831 2223.34 294.251 2207.99 305.209 2200.02ZM2522.79 2200.02C2533.75 2207.99 2536.17 2223.34 2528.2 2234.3L2527.98 2234.59C2520.01 2245.54 2504.66 2247.96 2493.7 2239.98C2482.75 2232.01 2480.33 2216.66 2488.31 2205.7L2488.51 2205.42C2496.49 2194.47 2511.83 2192.05 2522.79 2200.02ZM392.37 2311.61C402.44 2302.54 417.955 2303.35 427.025 2313.42L427.257 2313.68C436.329 2323.75 435.523 2339.26 425.456 2348.33C415.389 2357.41 399.874 2356.6 390.801 2346.53L390.561 2346.27C381.491 2336.2 382.301 2320.68 392.37 2311.61ZM2435.63 2311.61C2445.7 2320.68 2446.51 2336.2 2437.44 2346.27L2437.2 2346.53C2428.13 2356.6 2412.61 2357.41 2402.54 2348.33C2392.48 2339.26 2391.67 2323.75 2400.74 2313.68L2400.98 2313.42C2410.04 2303.35 2425.56 2302.54 2435.63 2311.61ZM490.665 2413.54C499.738 2403.48 515.253 2402.67 525.32 2411.74L525.578 2411.98C535.647 2421.04 536.457 2436.56 527.387 2446.63C518.317 2456.7 502.802 2457.51 492.733 2448.44L492.466 2448.2C482.399 2439.13 481.593 2423.61 490.665 2413.54ZM2337.33 2413.54C2346.41 2423.61 2345.6 2439.13 2335.53 2448.2L2335.27 2448.44C2325.2 2457.51 2309.68 2456.7 2300.61 2446.63C2291.54 2436.56 2292.35 2421.05 2302.42 2411.98L2302.68 2411.74C2312.75 2402.67 2328.26 2403.48 2337.33 2413.54ZM599.017 2504.7C606.993 2493.75 622.34 2491.33 633.296 2499.31L633.577 2499.51C644.535 2507.49 646.955 2522.83 638.982 2533.79C631.009 2544.75 615.662 2547.17 604.704 2539.2L604.413 2538.98C593.457 2531.01 591.041 2515.66 599.017 2504.7ZM2228.98 2504.7C2236.96 2515.66 2234.54 2531.01 2223.59 2538.98L2223.3 2539.2C2212.34 2547.17 2196.99 2544.75 2189.02 2533.79C2181.04 2522.83 2183.46 2507.49 2194.42 2499.51L2194.7 2499.31C2205.66 2491.33 2221.01 2493.75 2228.98 2504.7ZM716.271 2584.08C723.059 2572.36 738.07 2568.35 749.799 2575.14L750.099 2575.31C761.83 2582.1 765.839 2597.11 759.054 2608.84C752.269 2620.57 737.258 2624.58 725.528 2617.79L725.216 2617.61C713.487 2610.82 709.482 2595.81 716.271 2584.08ZM2111.73 2584.08C2118.52 2595.81 2114.51 2610.82 2102.78 2617.61L2102.47 2617.79C2090.74 2624.58 2075.73 2620.57 2068.95 2608.84C2062.16 2597.11 2066.17 2582.1 2077.9 2575.31L2078.2 2575.14C2089.93 2568.35 2104.94 2572.36 2111.73 2584.08ZM841.183 2650.77C846.704 2638.39 861.212 2632.84 873.589 2638.36L873.906 2638.5C886.283 2644.02 891.845 2658.52 886.327 2670.9C880.81 2683.28 866.303 2688.84 853.925 2683.32L853.596 2683.17C841.22 2677.65 835.662 2663.15 841.183 2650.77ZM1986.82 2650.77C1992.34 2663.15 1986.78 2677.65 1974.4 2683.18L1974.07 2683.32C1961.7 2688.84 1947.19 2683.28 1941.67 2670.9C1936.16 2658.52 1941.72 2644.02 1954.09 2638.5L1954.41 2638.36C1966.79 2632.84 1981.3 2638.39 1986.82 2650.77ZM972.414 2703.97C976.601 2691.08 990.444 2684.03 1003.33 2688.21L1003.66 2688.32C1016.55 2692.5 1023.61 2706.34 1019.43 2719.23C1015.24 2732.12 1001.4 2739.18 988.513 2735L988.17 2734.89C975.281 2730.7 968.227 2716.86 972.414 2703.97ZM1855.59 2703.97C1859.77 2716.86 1852.72 2730.7 1839.83 2734.89L1839.49 2735C1826.6 2739.18 1812.76 2732.12 1808.57 2719.23C1804.39 2706.34 1811.45 2692.5 1824.34 2688.32L1824.67 2688.21C1837.56 2684.03 1851.4 2691.08 1855.59 2703.97ZM1108.53 2743.05C1111.33 2729.79 1124.36 2721.32 1137.61 2724.13L1137.96 2724.2C1151.21 2727 1159.69 2740.02 1156.89 2753.28C1154.08 2766.54 1141.06 2775.02 1127.8 2772.21L1127.45 2772.14C1114.19 2769.33 1105.72 2756.31 1108.53 2743.05ZM1719.47 2743.05C1722.28 2756.31 1713.81 2769.33 1700.55 2772.14L1700.2 2772.21C1686.94 2775.02 1673.92 2766.54 1671.11 2753.28C1668.31 2740.02 1676.79 2727 1690.04 2724.2L1690.38 2724.13C1703.64 2721.32 1716.67 2729.79 1719.47 2743.05ZM1248.01 2767.6C1249.41 2754.12 1261.47 2744.33 1274.95 2745.73L1275.3 2745.77C1288.78 2747.17 1298.57 2759.23 1297.17 2772.71C1295.77 2786.19 1283.71 2795.98 1270.23 2794.58L1269.87 2794.55C1256.39 2793.14 1246.6 2781.08 1248.01 2767.6ZM1579.99 2767.6C1581.4 2781.08 1571.61 2793.14 1558.13 2794.55L1557.77 2794.58C1544.29 2795.98 1532.23 2786.19 1530.83 2772.71C1529.43 2759.23 1539.22 2747.17 1552.7 2745.77L1553.05 2745.73C1566.53 2744.33 1578.59 2754.12 1579.99 2767.6ZM1389.28 2777.46C1389.29 2763.91 1400.27 2752.92 1413.83 2752.92H1414.17C1427.73 2752.92 1438.71 2763.91 1438.72 2777.46C1438.72 2791.01 1427.73 2802 1414.18 2802H1413.82C1400.27 2802 1389.28 2791.01 1389.28 2777.46Z" stroke="#FDE400" stroke-width="6" stroke-linecap="round" mask="url(#path-21-inside-1_52_18)"/>
</g>
</g>
<defs>
<filter id="filter0_ii_52_18" x="-50" y="0" width="2932" height="2892" filterUnits="userSpaceOnUse" color-interpolation-filters="sRGB">
<feFlood flood-opacity="0" result="BackgroundImageFix"/>
<feBlend mode="normal" in="SourceGraphic" in2="BackgroundImageFix" result="shape"/>
<feColorMatrix in="SourceAlpha" type="matrix" values="0 0 0 0 0 0 0 0 0 0 0 0 0 0 0 0 0 0 127 0" result="hardAlpha"/>
<feOffset dx="50" dy="60"/>
<feGaussianBlur stdDeviation="50"/>
<feComposite in2="hardAlpha" operator="arithmetic" k2="-1" k3="1"/>
<feColorMatrix type="matrix" values="0 0 0 0 0 0 0 0 0 0 0 0 0 0 0 0 0 0 0.25 0"/>
<feBlend mode="normal" in2="shape" result="effect1_innerShadow_52_18"/>
<feColorMatrix in="SourceAlpha" type="matrix" values="0 0 0 0 0 0 0 0 0 0 0 0 0 0 0 0 0 0 127 0" result="hardAlpha"/>
<feOffset dx="-50" dy="60"/>
<feGaussianBlur stdDeviation="25"/>
<feComposite in2="hardAlpha" operator="arithmetic" k2="-1" k3="1"/>
<feColorMatrix type="matrix" values="0 0 0 0 1 0 0 0 0 1 0 0 0 0 1 0 0 0 0.25 0"/>
<feBlend mode="normal" in2="effect1_innerShadow_52_18" result="effect2_innerShadow_52_18"/>
</filter>
<filter id="filter1_dd_52_18" x="-38" y="-27" width="2904" height="2904" filterUnits="userSpaceOnUse" color-interpolation-filters="sRGB">
<feFlood flood-opacity="0" result="BackgroundImageFix"/>
<feColorMatrix in="SourceAlpha" type="matrix" values="0 0 0 0 0 0 0 0 0 0 0 0 0 0 0 0 0 0 127 0" result="hardAlpha"/>
<feOffset/>
<feGaussianBlur stdDeviation="12.5"/>
<feComposite in2="hardAlpha" operator="out"/>
<feColorMatrix type="matrix" values="0 0 0 0 1 0 0 0 0 0.901961 0 0 0 0 0 0 0 0 1 0"/>
<feBlend mode="normal" in2="BackgroundImageFix" result="effect1_dropShadow_52_18"/>
<feColorMatrix in="SourceAlpha" type="matrix" values="0 0 0 0 0 0 0 0 0 0 0 0 0 0 0 0 0 0 127 0" result="hardAlpha"/>
<feOffset/>
<feGaussianBlur stdDeviation="37.5"/>
<feComposite in2="hardAlpha" operator="out"/>
<feColorMatrix type="matrix" values="0 0 0 0 1 0 0 0 0 0.9 0 0 0 0 0 0 0 0 1 0"/>
<feBlend mode="normal" in2="effect1_dropShadow_52_18" result="effect2_dropShadow_52_18"/>
<feBlend mode="normal" in="SourceGraphic" in2="effect2_dropShadow_52_18" result="shape"/>
</filter>
<clipPath id="clip0_52_18">
<rect width="2832" height="2832" fill="white"/>
</clipPath>
</defs>
</svg>
