<svg width="201" height="304" viewBox="0 0 201 304" fill="none" xmlns="http://www.w3.org/2000/svg">
<g filter="url(#filter0_i_44_422)">
<rect x="64.6104" y="0.0546875" width="65.0093" height="90.8349" rx="32.5047" fill="#C4C4C4"/>
<path d="M115.37 29.8889C115.37 39.9714 107.197 48.1449 97.1144 48.1449C87.0319 48.1449 78.8584 39.9714 78.8584 29.8889C78.8584 19.8063 87.0319 11.6328 97.1144 11.6328C107.197 11.6328 115.37 19.8063 115.37 29.8889Z" fill="#6B738F"/>
<path d="M93.9755 16.9554C95.5087 14.7909 98.7207 14.7909 100.254 16.9554C101.109 18.163 102.582 18.7729 104.041 18.5238C106.655 18.0774 108.926 20.3487 108.48 22.9633C108.231 24.4221 108.841 25.8945 110.048 26.7499C112.213 28.2831 112.213 31.4952 110.048 33.0283C108.841 33.8838 108.231 35.3561 108.48 36.8149C108.926 39.4295 106.655 41.7008 104.041 41.2544C102.582 41.0054 101.109 41.6152 100.254 42.8229C98.7207 44.9873 95.5087 44.9873 93.9755 42.8229C93.1201 41.6152 91.6477 41.0054 90.1889 41.2544C87.5743 41.7008 85.303 39.4295 85.7494 36.8149C85.9985 35.3561 85.3886 33.8838 84.1809 33.0283C82.0165 31.4952 82.0165 28.2831 84.1809 26.7499C85.3886 25.8945 85.9985 24.4221 85.7494 22.9633C85.303 20.3487 87.5743 18.0774 90.1889 18.5238C91.6477 18.7729 93.1201 18.163 93.9755 16.9554Z" fill="#C4C4C4"/>
<path fill-rule="evenodd" clip-rule="evenodd" d="M92.6621 88.2168V203.542H101.567V88.2168H92.6621Z" fill="#6B738F"/>
<path fill-rule="evenodd" clip-rule="evenodd" d="M162.569 92.6695H31.6597V199.089H162.569V92.6695ZM27.207 88.2168V203.542H167.022V88.2168H27.207Z" fill="#353F58"/>
<path d="M17.8574 176.381H177.264V257.42C177.264 275.864 162.312 290.815 143.869 290.815H51.2527C32.809 290.815 17.8574 275.864 17.8574 257.42V176.381Z" fill="#5C5B80"/>
<path d="M51.2576 290.814H148.761L152.774 303.282H47.2451L51.2576 290.814Z" fill="#E7EAC6"/>
<path fill-rule="evenodd" clip-rule="evenodd" d="M200.862 105.135C200.862 75.6256 156.008 51.7031 100.677 51.7031C45.3458 51.7031 0.491211 75.6256 0.491211 105.135H200.862Z" fill="#E2E0CD"/>
<path fill-rule="evenodd" clip-rule="evenodd" d="M177.263 105.135C177.263 75.6256 142.376 51.7031 99.3411 51.7031C56.3059 51.7031 21.4189 75.6256 21.4189 105.135H177.263Z" fill="#5C5B80"/>
<path fill-rule="evenodd" clip-rule="evenodd" d="M160.787 105.135C160.787 75.6256 132.38 51.7031 97.3366 51.7031C62.2937 51.7031 33.8857 75.6256 33.8857 105.135H160.787Z" fill="#E2E0CD"/>
<path fill-rule="evenodd" clip-rule="evenodd" d="M58.8213 105.135H136.743C136.743 75.6256 119.3 51.7031 97.7824 51.7031C76.2647 51.7031 58.8213 75.6256 58.8213 105.135Z" fill="#5C5B80"/>
<path fill-rule="evenodd" clip-rule="evenodd" d="M79.3037 105.135H114.925C114.925 75.6256 106.951 51.7031 97.1145 51.7031C87.2779 51.7031 79.3037 75.6256 79.3037 105.135Z" fill="#E2E0CD"/>
<path d="M114.925 51.9272C114.925 55.247 106.951 57.9383 97.1145 57.9383C87.2779 57.9383 79.3037 55.247 79.3037 51.9272C79.3037 48.6073 87.2779 45.916 97.1145 45.916C106.951 45.916 114.925 48.6073 114.925 51.9272Z" fill="#E7EAC6"/>
<path d="M117.654 217.567C118.536 216.251 120.47 216.251 121.352 217.567L142.577 249.228C143.172 250.116 142.536 251.308 141.468 251.308H97.5383C96.4698 251.308 95.8338 250.116 96.4287 249.228L117.654 217.567Z" fill="#C4C4C4"/>
<path d="M117.653 217.574C118.534 216.256 120.472 216.256 121.353 217.574L127.193 226.304L123.323 225.764C121.885 225.563 120.419 225.78 119.101 226.389L118.709 226.57C116.629 227.532 114.225 227.499 112.172 226.482L111.812 226.304L117.653 217.574Z" fill="white"/>
<path d="M89.4264 205.975C90.3041 204.623 92.2837 204.623 93.1614 205.975L123.765 253.131C124.342 254.02 123.704 255.194 122.644 255.194H59.9435C58.884 255.194 58.2462 254.02 58.823 253.131L89.4264 205.975Z" fill="#C4C4C4"/>
<path d="M89.4064 206.069C90.2841 204.716 92.2643 204.716 93.142 206.069L102.961 221.206L98.0339 222.371C96.2911 222.784 94.4585 222.565 92.8618 221.754L89.7287 220.162C87.9056 219.235 85.7853 219.086 83.8504 219.748L79.5879 221.206L89.4064 206.069Z" fill="white"/>
</g>
<defs>
<filter id="filter0_i_44_422" x="-13.3121" y="0.0546875" width="214.174" height="303.229" filterUnits="userSpaceOnUse" color-interpolation-filters="sRGB">
<feFlood flood-opacity="0" result="BackgroundImageFix"/>
<feBlend mode="normal" in="SourceGraphic" in2="BackgroundImageFix" result="shape"/>
<feColorMatrix in="SourceAlpha" type="matrix" values="0 0 0 0 0 0 0 0 0 0 0 0 0 0 0 0 0 0 127 0" result="hardAlpha"/>
<feOffset dx="-13.8033"/>
<feGaussianBlur stdDeviation="8.90539"/>
<feComposite in2="hardAlpha" operator="arithmetic" k2="-1" k3="1"/>
<feColorMatrix type="matrix" values="0 0 0 0 0 0 0 0 0 0 0 0 0 0 0 0 0 0 0.25 0"/>
<feBlend mode="normal" in2="shape" result="effect1_innerShadow_44_422"/>
</filter>
</defs>
</svg>
