<svg width="201" height="304" viewBox="0 0 201 304" fill="none" xmlns="http://www.w3.org/2000/svg">
<g filter="url(#filter0_i_44_590)">
<rect x="64.6426" y="0.478516" width="65.0093" height="90.8349" rx="32.5047" fill="#C4C4C4"/>
<path d="M115.404 30.3107C115.404 40.3933 107.23 48.5668 97.1476 48.5668C87.0651 48.5668 78.8916 40.3933 78.8916 30.3107C78.8916 20.2282 87.0651 12.0547 97.1476 12.0547C107.23 12.0547 115.404 20.2282 115.404 30.3107Z" fill="#6B738F"/>
<path d="M94.0077 17.3772C95.5409 15.2128 98.753 15.2128 100.286 17.3772V17.3772C101.142 18.5849 102.614 19.1947 104.073 18.9457V18.9457C106.687 18.4993 108.959 20.7706 108.512 23.3852V23.3852C108.263 24.844 108.873 26.3164 110.081 27.1718V27.1718C112.245 28.705 112.245 31.917 110.081 33.4502V33.4502C108.873 34.3056 108.263 35.778 108.512 37.2368V37.2368C108.959 39.8514 106.687 42.1227 104.073 41.6763V41.6763C102.614 41.4273 101.142 42.0371 100.286 43.2448V43.2448C98.753 45.4092 95.5409 45.4092 94.0077 43.2448V43.2448C93.1523 42.0371 91.68 41.4273 90.2211 41.6763V41.6763C87.6065 42.1227 85.3353 39.8514 85.7816 37.2368V37.2368C86.0307 35.778 85.4208 34.3056 84.2132 33.4502V33.4502C82.0487 31.917 82.0487 28.705 84.2132 27.1718V27.1718C85.4208 26.3164 86.0307 24.844 85.7816 23.3852V23.3852C85.3353 20.7706 87.6065 18.4993 90.2211 18.9457V18.9457C91.68 19.1947 93.1523 18.5849 94.0077 17.3772V17.3772Z" fill="#C4C4C4"/>
<path fill-rule="evenodd" clip-rule="evenodd" d="M92.6934 88.6406V203.965H101.599V88.6406H92.6934Z" fill="#6B738F"/>
<path fill-rule="evenodd" clip-rule="evenodd" d="M162.601 93.0933H31.692V199.513H162.601V93.0933ZM27.2393 88.6406V203.965H167.054V88.6406H27.2393Z" fill="#353F58"/>
<path d="M17.8887 176.805H177.295V257.844C177.295 276.287 162.344 291.239 143.9 291.239H51.2839C32.8403 291.239 17.8887 276.287 17.8887 257.844V176.805Z" fill="#8783A0"/>
<path d="M51.2889 291.238H148.793L152.805 303.706H47.2764L51.2889 291.238Z" fill="#E7EAC6"/>
<path fill-rule="evenodd" clip-rule="evenodd" d="M200.894 105.561C200.894 76.0514 156.039 52.1289 100.708 52.1289C45.3771 52.1289 0.522461 76.0514 0.522461 105.561H200.894Z" fill="#E2E0CD"/>
<path fill-rule="evenodd" clip-rule="evenodd" d="M177.295 105.561C177.295 76.0514 142.409 52.1289 99.3733 52.1289C56.3381 52.1289 21.4512 76.0514 21.4512 105.561H177.295Z" fill="#8783A0"/>
<path fill-rule="evenodd" clip-rule="evenodd" d="M160.82 105.561C160.82 76.0514 132.412 52.1289 97.3688 52.1289C62.3259 52.1289 33.918 76.0514 33.918 105.561H160.82Z" fill="#E2E0CD"/>
<path fill-rule="evenodd" clip-rule="evenodd" d="M58.8525 105.561H136.775C136.775 76.0514 119.331 52.1289 97.8136 52.1289C76.296 52.1289 58.8525 76.0514 58.8525 105.561Z" fill="#8783A0"/>
<path fill-rule="evenodd" clip-rule="evenodd" d="M79.335 105.561H114.957C114.957 76.0514 106.982 52.1289 97.1457 52.1289C87.3091 52.1289 79.335 76.0514 79.335 105.561Z" fill="#E2E0CD"/>
<path d="M114.957 52.351C114.957 55.6708 106.983 58.3621 97.1467 58.3621C87.3101 58.3621 79.3359 55.6708 79.3359 52.351C79.3359 49.0311 87.3101 46.3398 97.1467 46.3398C106.983 46.3398 114.957 49.0311 114.957 52.351Z" fill="#E7EAC6"/>
<path d="M128.795 212.547L109.963 201.488L67.9287 204.743L77.1792 265.127L128.795 262.867V212.547Z" fill="white"/>
<path fill-rule="evenodd" clip-rule="evenodd" d="M63.8906 205.126C63.8906 202.803 67.8379 200.704 67.416 204.018L78.1128 213.419C78.7079 213.934 78.8661 213.781 78.8661 214.568L78.6854 264.148C78.6854 266.774 76.8637 267.867 75.3181 265.745L64.8723 251.401C64.2343 250.525 63.8906 249.469 63.8906 248.386V205.126ZM68.1091 208.423V248.386C68.1091 248.577 68.1697 248.763 68.2823 248.918L76.0036 259.52V215.257L68.1091 208.423Z" fill="black"/>
<path d="M77.9046 214.113L66.9969 204.67C66.6066 204.332 65.9999 204.61 65.9999 205.126V248.386C65.9999 249.023 66.202 249.644 66.5773 250.159L77.0231 264.503C77.3665 264.975 78.1128 264.732 78.1128 264.148V214.568C78.1128 214.394 78.0369 214.227 77.9046 214.113Z" fill="black"/>
<path fill-rule="evenodd" clip-rule="evenodd" d="M107.523 200.069C110.111 199.932 112.68 200.578 114.895 201.922L129.975 211.075C132.14 212.389 131.246 215.717 128.714 215.769L80.1608 216.77C77.9655 216.815 75.8297 216.055 74.1573 214.632L65.1834 206.997C63.3156 205.408 64.3485 202.353 66.7973 202.224L107.523 200.069ZM112.706 205.529C111.216 204.624 109.487 204.189 107.745 204.281L72.0083 206.172C71.573 206.195 71.3893 206.738 71.7214 207.021L76.8908 211.419C77.7775 212.173 78.9099 212.576 80.0738 212.552L119.979 210.78C120.46 210.758 120.616 210.123 120.2 209.881L112.706 205.529Z" fill="black"/>
<path fill-rule="evenodd" clip-rule="evenodd" d="M127.107 216.777C127.107 215.642 126.16 214.738 125.027 214.79L81.4941 216.801C80.1753 216.862 79.1373 217.949 79.1373 219.269V261.708C79.1373 262.842 80.0847 263.747 81.2178 263.694L126.015 261.625C126.626 261.597 127.107 261.093 127.107 260.481V216.777ZM127.858 210.436C129.747 210.349 131.326 211.857 131.326 213.747V260.481C131.326 263.347 129.073 265.707 126.21 265.839L79.332 268.004C76.9283 268.115 74.9189 266.197 74.9189 263.79V219.269C74.9189 215.695 77.7289 212.752 81.2995 212.587L127.858 210.436Z" fill="black"/>
<path d="M112.476 255.202C110.354 255.939 108.012 255.028 106.945 253.053L95.1047 231.138V252.683C95.1047 252.993 95.3654 253.241 95.6758 253.224L97.9585 253.103C98.2584 253.087 98.5103 253.326 98.5103 253.626V253.626C98.5103 255.237 97.2717 256.577 95.666 256.703L87.5897 257.337C87.2744 257.362 87.0049 257.113 87.0049 256.797V256.35C87.0049 255.007 88.0304 253.887 89.3678 253.769L89.9159 253.72C90.1958 253.695 90.4105 253.461 90.4105 253.18V226.17C90.4105 225.855 90.1437 225.607 89.8298 225.629L87.5286 225.792C87.2455 225.812 87.0049 225.588 87.0049 225.304V225.304C87.0049 223.713 88.2946 222.423 89.8855 222.423H99.279C99.4753 222.423 99.6563 222.529 99.7522 222.701L112.202 244.938V224.412C112.202 224.101 111.941 223.854 111.631 223.87L109.296 223.994C109.024 224.009 108.796 223.792 108.796 223.52V223.52C108.796 222.23 109.807 221.165 111.095 221.097L119.795 220.642C120.07 220.627 120.302 220.847 120.302 221.123V221.123C120.302 222.416 119.302 223.489 118.012 223.579L117.377 223.624C117.093 223.644 116.873 223.88 116.873 224.165V253.676L112.476 255.202Z" fill="black"/>
</g>
<defs>
<filter id="filter0_i_44_590" x="-13.2809" y="0.478516" width="214.175" height="303.229" filterUnits="userSpaceOnUse" color-interpolation-filters="sRGB">
<feFlood flood-opacity="0" result="BackgroundImageFix"/>
<feBlend mode="normal" in="SourceGraphic" in2="BackgroundImageFix" result="shape"/>
<feColorMatrix in="SourceAlpha" type="matrix" values="0 0 0 0 0 0 0 0 0 0 0 0 0 0 0 0 0 0 127 0" result="hardAlpha"/>
<feOffset dx="-13.8033"/>
<feGaussianBlur stdDeviation="8.90539"/>
<feComposite in2="hardAlpha" operator="arithmetic" k2="-1" k3="1"/>
<feColorMatrix type="matrix" values="0 0 0 0 0 0 0 0 0 0 0 0 0 0 0 0 0 0 0.25 0"/>
<feBlend mode="normal" in2="shape" result="effect1_innerShadow_44_590"/>
</filter>
</defs>
</svg>
