<svg width="201" height="304" viewBox="0 0 201 304" fill="none" xmlns="http://www.w3.org/2000/svg">
<g filter="url(#filter0_i_227_3)">
<rect x="64.1191" width="65.0093" height="90.8349" rx="32.5047" fill="#C4C4C4"/>
<path d="M114.88 29.8322C114.88 39.9147 106.707 48.0883 96.6242 48.0883C86.5417 48.0883 78.3682 39.9147 78.3682 29.8322C78.3682 19.7497 86.5417 11.5762 96.6242 11.5762C106.707 11.5762 114.88 19.7497 114.88 29.8322Z" fill="#6B738F"/>
<path d="M93.4843 16.8987C95.0175 14.7343 98.2295 14.7343 99.7627 16.8987V16.8987C100.618 18.1064 102.09 18.7162 103.549 18.4672V18.4672C106.164 18.0208 108.435 20.2921 107.989 22.9067V22.9067C107.74 24.3655 108.35 25.8379 109.557 26.6933V26.6933C111.722 28.2265 111.722 31.4385 109.557 32.9717V32.9717C108.35 33.8271 107.74 35.2995 107.989 36.7583V36.7583C108.435 39.3729 106.164 41.6442 103.549 41.1978V41.1978C102.09 40.9487 100.618 41.5586 99.7627 42.7663V42.7663C98.2295 44.9307 95.0175 44.9307 93.4843 42.7663V42.7663C92.6289 41.5586 91.1565 40.9487 89.6977 41.1978V41.1978C87.0831 41.6442 84.8118 39.3729 85.2582 36.7583V36.7583C85.5072 35.2995 84.8974 33.8271 83.6897 32.9717V32.9717C81.5253 31.4385 81.5253 28.2265 83.6897 26.6933V26.6933C84.8974 25.8379 85.5072 24.3655 85.2582 22.9067V22.9067C84.8118 20.2921 87.0831 18.0208 89.6977 18.4672V18.4672C91.1565 18.7162 92.6289 18.1064 93.4843 16.8987V16.8987Z" fill="#C4C4C4"/>
<path fill-rule="evenodd" clip-rule="evenodd" d="M92.1709 88.1621V203.487H101.076V88.1621H92.1709Z" fill="#6B738F"/>
<path fill-rule="evenodd" clip-rule="evenodd" d="M162.079 92.6148H31.1695V199.034H162.079V92.6148ZM26.7168 88.1621V203.487H166.531V88.1621H26.7168Z" fill="#353F58"/>
<path d="M17.3652 176.326H176.772V257.365C176.772 275.809 161.82 290.76 143.376 290.76H50.7605C32.3168 290.76 17.3652 275.809 17.3652 257.365V176.326Z" fill="#8783A0"/>
<path d="M50.7654 290.76H148.269L152.282 303.227H46.7529L50.7654 290.76Z" fill="#E7EAC6"/>
<path fill-rule="evenodd" clip-rule="evenodd" d="M200.372 105.083C200.372 75.5729 155.518 51.6504 100.187 51.6504C44.8556 51.6504 0.000976562 75.5729 0.000976562 105.083H200.372Z" fill="#E2E0CD"/>
<path fill-rule="evenodd" clip-rule="evenodd" d="M176.773 105.083C176.773 75.5729 141.886 51.6504 98.8508 51.6504C55.8156 51.6504 20.9287 75.5729 20.9287 105.083H176.773Z" fill="#8783A0"/>
<path fill-rule="evenodd" clip-rule="evenodd" d="M160.297 105.083C160.297 75.5729 131.889 51.6504 96.8464 51.6504C61.8034 51.6504 33.3955 75.5729 33.3955 105.083H160.297Z" fill="#E2E0CD"/>
<path fill-rule="evenodd" clip-rule="evenodd" d="M58.3301 105.083H136.252C136.252 75.5729 118.809 51.6504 97.2911 51.6504C75.7735 51.6504 58.3301 75.5729 58.3301 105.083Z" fill="#8783A0"/>
<path fill-rule="evenodd" clip-rule="evenodd" d="M78.8135 105.083H114.435C114.435 75.5729 106.461 51.6504 96.6242 51.6504C86.7876 51.6504 78.8135 75.5729 78.8135 105.083Z" fill="#E2E0CD"/>
<path d="M114.434 51.8725C114.434 55.1923 106.46 57.8836 96.6233 57.8836C86.7867 57.8836 78.8125 55.1923 78.8125 51.8725C78.8125 48.5526 86.7867 45.8613 96.6233 45.8613C106.46 45.8613 114.434 48.5526 114.434 51.8725Z" fill="#E7EAC6"/>
<path d="M97.4776 198L106.325 225.229H134.955L111.793 242.058L120.64 269.287L97.4776 252.458L74.3152 269.287L83.1625 242.058L60 225.229H88.6304L97.4776 198Z" fill="white"/>
<path fill-rule="evenodd" clip-rule="evenodd" d="M96.7041 196C97.6687 196 98.5235 196.621 98.8215 197.538L107.169 223.229H134.182C135.146 223.229 136.001 223.85 136.299 224.767C136.597 225.685 136.271 226.69 135.49 227.257L113.637 243.134L121.984 268.825C122.282 269.742 121.956 270.747 121.175 271.314C120.395 271.881 119.338 271.881 118.558 271.314L96.7041 255.436L74.8503 271.314C74.07 271.881 73.0134 271.881 72.2331 271.314C71.4528 270.747 71.1263 269.742 71.4243 268.825L79.7717 243.134L57.9179 227.257C57.1376 226.69 56.8111 225.685 57.1091 224.767C57.4072 223.85 58.262 223.229 59.2265 223.229H86.2393L94.5868 197.538C94.8848 196.621 95.7396 196 96.7041 196ZM96.7041 205.431L89.9743 226.143C89.6762 227.061 88.8214 227.682 87.8569 227.682H66.0785L83.6976 240.483C84.4779 241.05 84.8044 242.055 84.5063 242.972L77.7765 263.684L95.3955 250.883C96.1758 250.316 97.2325 250.316 98.0128 250.883L115.632 263.684L108.902 242.972C108.604 242.055 108.93 241.05 109.711 240.483L127.33 227.682H105.551C104.587 227.682 103.732 227.061 103.434 226.143L96.7041 205.431Z" fill="#E2E0CD"/>
</g>
<defs>
<filter id="filter0_i_227_3" x="-13.8033" y="0" width="214.175" height="303.229" filterUnits="userSpaceOnUse" color-interpolation-filters="sRGB">
<feFlood flood-opacity="0" result="BackgroundImageFix"/>
<feBlend mode="normal" in="SourceGraphic" in2="BackgroundImageFix" result="shape"/>
<feColorMatrix in="SourceAlpha" type="matrix" values="0 0 0 0 0 0 0 0 0 0 0 0 0 0 0 0 0 0 127 0" result="hardAlpha"/>
<feOffset dx="-13.8033"/>
<feGaussianBlur stdDeviation="8.90539"/>
<feComposite in2="hardAlpha" operator="arithmetic" k2="-1" k3="1"/>
<feColorMatrix type="matrix" values="0 0 0 0 0 0 0 0 0 0 0 0 0 0 0 0 0 0 0.25 0"/>
<feBlend mode="normal" in2="shape" result="effect1_innerShadow_227_3"/>
</filter>
</defs>
</svg>
