<svg width="201" height="305" viewBox="0 0 201 305" fill="none" xmlns="http://www.w3.org/2000/svg">
<g filter="url(#filter0_i_44_618)">
<rect x="64.1445" y="0.855469" width="65.0093" height="90.8349" rx="32.5047" fill="#C4C4C4"/>
<path d="M114.905 30.6877C114.905 40.7702 106.731 48.9437 96.6486 48.9437C86.5661 48.9437 78.3926 40.7702 78.3926 30.6877C78.3926 20.6051 86.5661 12.4316 96.6486 12.4316C106.731 12.4316 114.905 20.6051 114.905 30.6877Z" fill="#6B738F"/>
<path d="M93.5097 17.7542C95.0429 15.5898 98.2549 15.5898 99.7881 17.7542C100.644 18.9618 102.116 19.5717 103.575 19.3226C106.189 18.8763 108.461 21.1475 108.014 23.7622C107.765 25.221 108.375 26.6933 109.583 27.5488C111.747 29.0819 111.747 32.294 109.583 33.8272C108.375 34.6826 107.765 36.1549 108.014 37.6138C108.461 40.2284 106.189 42.4996 103.575 42.0533C102.116 41.8042 100.644 42.4141 99.7881 43.6217C98.2549 45.7862 95.0429 45.7862 93.5097 43.6217C92.6543 42.4141 91.1819 41.8042 89.7231 42.0533C87.1085 42.4996 84.8372 40.2284 85.2836 37.6138C85.5326 36.1549 84.9228 34.6826 83.7151 33.8272C81.5507 32.294 81.5507 29.0819 83.7151 27.5488C84.9228 26.6933 85.5326 25.221 85.2836 23.7622C84.8372 21.1475 87.1085 18.8763 89.7231 19.3226C91.1819 19.5717 92.6543 18.9618 93.5097 17.7542Z" fill="#C4C4C4"/>
<path fill-rule="evenodd" clip-rule="evenodd" d="M92.1963 89.0176V204.342H101.102V89.0176H92.1963Z" fill="#6B738F"/>
<path fill-rule="evenodd" clip-rule="evenodd" d="M162.103 93.4703H31.1939V199.89H162.103V93.4703ZM26.7412 89.0176V204.342H166.556V89.0176H26.7412Z" fill="#8292A5"/>
<path d="M17.3906 177.182H176.797V258.221C176.797 276.664 161.846 291.616 143.402 291.616H50.7859C32.3422 291.616 17.3906 276.664 17.3906 258.221V177.182Z" fill="#8292A5"/>
<path d="M50.7908 291.615H148.295L152.307 304.083H46.7783L50.7908 291.615Z" fill="#E7EAC6"/>
<path fill-rule="evenodd" clip-rule="evenodd" d="M200.397 105.938C200.397 76.4283 155.542 52.5059 100.211 52.5059C44.88 52.5059 0.0253906 76.4283 0.0253906 105.938H200.397Z" fill="#E2E0CD"/>
<path fill-rule="evenodd" clip-rule="evenodd" d="M176.797 105.938C176.797 76.4283 141.91 52.5059 98.8753 52.5059C55.84 52.5059 20.9531 76.4283 20.9531 105.938H176.797Z" fill="#8292A5"/>
<path fill-rule="evenodd" clip-rule="evenodd" d="M160.322 105.938C160.322 76.4283 131.914 52.5059 96.8708 52.5059C61.8278 52.5059 33.4199 76.4283 33.4199 105.938H160.322Z" fill="#E2E0CD"/>
<path fill-rule="evenodd" clip-rule="evenodd" d="M58.3555 105.938H136.278C136.278 76.4283 118.834 52.5059 97.3165 52.5059C75.7989 52.5059 58.3555 76.4283 58.3555 105.938Z" fill="#8292A5"/>
<path fill-rule="evenodd" clip-rule="evenodd" d="M78.8379 105.938H114.459C114.459 76.4283 106.485 52.5059 96.6487 52.5059C86.812 52.5059 78.8379 76.4283 78.8379 105.938Z" fill="#E2E0CD"/>
<path d="M114.459 52.7279C114.459 56.0478 106.485 58.7391 96.6487 58.7391C86.812 58.7391 78.8379 56.0478 78.8379 52.7279C78.8379 49.4081 86.812 46.7168 96.6487 46.7168C106.485 46.7168 114.459 49.4081 114.459 52.7279Z" fill="#E7EAC6"/>
<path d="M85.6065 223.015C86.3902 219.952 88.8837 215.677 94.0132 215.677C97.2191 215.677 99.7839 218.1 99.7839 221.519C99.7839 226.578 95.723 226.791 91.3772 229.57C88.1713 231.636 88.0288 234.201 88.0288 237.335V245.101H99.7839V241.111C99.7839 238.76 99.8551 236.765 102.277 235.697C109.117 232.776 114.317 228.501 114.317 221.519C114.317 211.474 104.771 204.492 94.0844 204.492C78.1972 204.492 75.1338 217.601 75.1338 217.957L85.6065 223.015ZM93.8707 249.09C89.3824 249.09 85.749 252.724 85.749 257.283C85.749 261.772 89.3824 265.405 93.8707 265.405C98.4303 265.405 102.064 261.772 102.064 257.283C102.064 252.724 98.4303 249.09 93.8707 249.09Z" fill="white"/>
</g>
<defs>
<filter id="filter0_i_44_618" x="-13.778" y="0.855469" width="214.174" height="303.229" filterUnits="userSpaceOnUse" color-interpolation-filters="sRGB">
<feFlood flood-opacity="0" result="BackgroundImageFix"/>
<feBlend mode="normal" in="SourceGraphic" in2="BackgroundImageFix" result="shape"/>
<feColorMatrix in="SourceAlpha" type="matrix" values="0 0 0 0 0 0 0 0 0 0 0 0 0 0 0 0 0 0 127 0" result="hardAlpha"/>
<feOffset dx="-13.8033"/>
<feGaussianBlur stdDeviation="8.90539"/>
<feComposite in2="hardAlpha" operator="arithmetic" k2="-1" k3="1"/>
<feColorMatrix type="matrix" values="0 0 0 0 0 0 0 0 0 0 0 0 0 0 0 0 0 0 0.25 0"/>
<feBlend mode="normal" in2="shape" result="effect1_innerShadow_44_618"/>
</filter>
</defs>
</svg>
