<svg width="201" height="304" viewBox="0 0 201 304" fill="none" xmlns="http://www.w3.org/2000/svg">
<g filter="url(#filter0_i_44_450)">
<rect x="64.6104" y="0.00585938" width="65.0093" height="90.8349" rx="32.5047" fill="#C4C4C4"/>
<path d="M115.37 29.84C115.37 39.9226 107.197 48.0961 97.1144 48.0961C87.0319 48.0961 78.8584 39.9226 78.8584 29.84C78.8584 19.7575 87.0319 11.584 97.1144 11.584C107.197 11.584 115.37 19.7575 115.37 29.84Z" fill="#6B738F"/>
<path d="M93.9755 16.9065C95.5087 14.7421 98.7207 14.7421 100.254 16.9065V16.9065C101.109 18.1142 102.582 18.724 104.041 18.475V18.475C106.655 18.0286 108.926 20.2999 108.48 22.9145V22.9145C108.231 24.3733 108.841 25.8457 110.048 26.7011V26.7011C112.213 28.2343 112.213 31.4463 110.048 32.9795V32.9795C108.841 33.8349 108.231 35.3073 108.48 36.7661V36.7661C108.926 39.3807 106.655 41.652 104.041 41.2056V41.2056C102.582 40.9566 101.109 41.5664 100.254 42.7741V42.7741C98.7207 44.9385 95.5087 44.9385 93.9755 42.7741V42.7741C93.1201 41.5664 91.6477 40.9566 90.1889 41.2056V41.2056C87.5743 41.652 85.303 39.3807 85.7494 36.7661V36.7661C85.9985 35.3073 85.3886 33.8349 84.1809 32.9795V32.9795C82.0165 31.4463 82.0165 28.2343 84.1809 26.7011V26.7011C85.3886 25.8457 85.9985 24.3733 85.7494 22.9145V22.9145C85.303 20.2999 87.5743 18.0286 90.1889 18.475V18.475C91.6477 18.724 93.1201 18.1142 93.9755 16.9065V16.9065Z" fill="#C4C4C4"/>
<path fill-rule="evenodd" clip-rule="evenodd" d="M92.6621 88.168V203.493H101.567V88.168H92.6621Z" fill="#6B738F"/>
<path fill-rule="evenodd" clip-rule="evenodd" d="M162.569 92.6207H31.6597V199.04H162.569V92.6207ZM27.207 88.168V203.493H167.022V88.168H27.207Z" fill="#353F58"/>
<path d="M17.8574 176.33H177.264V257.369C177.264 275.813 162.312 290.764 143.869 290.764H51.2527C32.809 290.764 17.8574 275.813 17.8574 257.369V176.33Z" fill="#5C5B80"/>
<path d="M51.2576 290.764H148.761L152.774 303.231H47.2451L51.2576 290.764Z" fill="#E7EAC6"/>
<path fill-rule="evenodd" clip-rule="evenodd" d="M200.862 105.087C200.862 75.5768 156.008 51.6543 100.677 51.6543C45.3458 51.6543 0.491211 75.5768 0.491211 105.087H200.862Z" fill="#E2E0CD"/>
<path fill-rule="evenodd" clip-rule="evenodd" d="M177.263 105.087C177.263 75.5768 142.376 51.6543 99.3411 51.6543C56.3059 51.6543 21.4189 75.5768 21.4189 105.087H177.263Z" fill="#5C5B80"/>
<path fill-rule="evenodd" clip-rule="evenodd" d="M160.787 105.087C160.787 75.5768 132.38 51.6543 97.3366 51.6543C62.2937 51.6543 33.8857 75.5768 33.8857 105.087H160.787Z" fill="#E2E0CD"/>
<path fill-rule="evenodd" clip-rule="evenodd" d="M58.8213 105.087H136.743C136.743 75.5768 119.3 51.6543 97.7824 51.6543C76.2647 51.6543 58.8213 75.5768 58.8213 105.087Z" fill="#5C5B80"/>
<path fill-rule="evenodd" clip-rule="evenodd" d="M79.3037 105.087H114.925C114.925 75.5768 106.951 51.6543 97.1145 51.6543C87.2779 51.6543 79.3037 75.5768 79.3037 105.087Z" fill="#E2E0CD"/>
<path d="M114.925 51.8783C114.925 55.1982 106.951 57.8895 97.1145 57.8895C87.2779 57.8895 79.3037 55.1982 79.3037 51.8783C79.3037 48.5585 87.2779 45.8672 97.1145 45.8672C106.951 45.8672 114.925 48.5585 114.925 51.8783Z" fill="#E7EAC6"/>
<path fill-rule="evenodd" clip-rule="evenodd" d="M103.739 220.525C102.419 219.494 100.97 218.525 99.4571 217.737C95.832 215.851 91.4152 214.803 87.5643 217.13C86.7043 217.65 85.5001 218.4 84.6753 219.476C83.6969 220.752 82.5151 222.861 81.4619 224.873C80.4179 226.867 78.5827 228.302 76.4286 228.754C75.7804 228.891 75.1267 228.981 74.4107 229.079L74.4106 229.079C74.1984 229.109 73.9807 229.139 73.7561 229.171C72.8124 229.306 71.7807 229.476 70.7688 229.8C68.3453 230.575 65.0417 232.356 62.2712 236.048C58.7399 240.755 58.0852 247.102 60.222 252.507C62.2365 257.601 66.2404 263.118 73.4186 266.336C78.8864 268.787 85.4535 268.72 90.6759 265.539C93.2175 263.99 95.7048 261.775 97.3036 258.692C99.0889 255.249 99.7446 252.228 100.138 250.072C100.363 248.838 100.79 247.862 101.476 247.249C101.98 246.8 102.629 246.352 103.507 245.999C103.76 245.898 103.937 245.835 104.135 245.765L104.135 245.765C104.312 245.702 104.505 245.633 104.784 245.526C105.254 245.345 105.791 245.112 106.312 244.768C108.4 243.388 110.625 240.87 111.477 237.44C112.344 233.95 111.737 229.722 108.501 225.087L108.46 225.027L108.412 224.971C108.204 224.726 107.982 224.474 107.746 224.217L105.572 226.428C105.723 226.595 105.867 226.759 106.004 226.92C108.769 230.908 109.089 234.209 108.472 236.694C107.837 239.252 106.155 241.16 104.605 242.185C104.357 242.349 104.059 242.487 103.671 242.637C103.566 242.677 103.4 242.737 103.214 242.805L103.214 242.805C102.924 242.91 102.584 243.034 102.354 243.126C101.106 243.627 100.155 244.279 99.4149 244.939C97.9924 246.209 97.374 247.969 97.0919 249.516C96.7218 251.546 96.1345 254.22 94.555 257.266C93.2855 259.715 91.2686 261.552 89.065 262.895C84.816 265.483 79.3377 265.597 74.6852 263.511C68.3841 260.686 64.8805 255.868 63.1012 251.368C61.333 246.896 61.9056 241.695 64.7478 237.906C67.0802 234.798 69.8114 233.357 71.712 232.749C72.4629 232.509 73.279 232.367 74.1951 232.236C74.3805 232.209 74.5723 232.183 74.7687 232.156C75.5021 232.055 76.2999 231.945 77.0656 231.784C80.1728 231.131 82.7556 229.077 84.2049 226.309C85.2666 224.28 86.3374 222.396 87.1322 221.36C87.556 220.807 88.2692 220.321 89.1655 219.78C91.6221 218.296 94.7437 218.775 98.0277 220.484C99.2557 221.123 100.448 221.906 101.552 222.748L103.739 220.525Z" fill="white"/>
<path fill-rule="evenodd" clip-rule="evenodd" d="M115.1 206.584L121.952 212.649L98.8999 236.088L91.8852 228.977L115.1 206.584ZM115.174 210.037L118.269 212.776L98.8972 232.473L95.4925 229.022L115.174 210.037Z" fill="white"/>
<path fill-rule="evenodd" clip-rule="evenodd" d="M91.2669 242.189C94.3366 242.189 96.825 239.701 96.825 236.631C96.825 233.562 94.3366 231.073 91.2669 231.073C88.1973 231.073 85.7089 233.562 85.7089 236.631C85.7089 239.701 88.1973 242.189 91.2669 242.189ZM91.2669 244.614C95.6757 244.614 99.2497 241.04 99.2497 236.631C99.2497 232.222 95.6757 228.648 91.2669 228.648C86.8582 228.648 83.2842 232.222 83.2842 236.631C83.2842 241.04 86.8582 244.614 91.2669 244.614Z" fill="white"/>
<path fill-rule="evenodd" clip-rule="evenodd" d="M71.7155 243.37C72.1493 242.901 72.8809 242.873 73.3496 243.307L84.274 253.418C84.7427 253.852 84.771 254.583 84.3372 255.052C83.9034 255.521 83.1717 255.549 82.703 255.115L71.7787 245.004C71.31 244.57 71.2817 243.839 71.7155 243.37Z" fill="white"/>
<path fill-rule="evenodd" clip-rule="evenodd" d="M122.884 194.743C122.437 194.301 121.717 194.305 121.275 194.751C120.833 195.198 120.836 195.918 121.282 196.36L123.569 198.626L125.105 196.944L122.884 194.743ZM130.781 202.567L129.245 204.248L131.801 206.78C132.247 207.222 132.968 207.218 133.41 206.772C133.852 206.326 133.849 205.605 133.402 205.163L130.781 202.567Z" fill="white"/>
<path fill-rule="evenodd" clip-rule="evenodd" d="M119.988 197.531C119.542 197.088 118.821 197.092 118.379 197.538C117.937 197.985 117.94 198.705 118.387 199.147L120.674 201.413L122.21 199.731L119.988 197.531ZM127.886 205.354L126.35 207.035L128.906 209.567C129.352 210.009 130.072 210.006 130.514 209.559C130.957 209.113 130.953 208.392 130.507 207.95L127.886 205.354Z" fill="white"/>
<path fill-rule="evenodd" clip-rule="evenodd" d="M117.227 200.515C116.781 200.073 116.061 200.076 115.618 200.523C115.176 200.969 115.18 201.689 115.626 202.132L117.913 204.397L119.449 202.715L117.227 200.515ZM125.125 208.338L123.589 210.02L126.145 212.551C126.591 212.993 127.312 212.99 127.754 212.544C128.196 212.097 128.193 211.377 127.746 210.935L125.125 208.338Z" fill="white"/>
<path fill-rule="evenodd" clip-rule="evenodd" d="M126.399 197.176L119.516 204.137L118.131 207.152L121.104 210.364L124.069 208.722C124.878 207.963 127.173 205.742 130.963 201.903C131.086 200.852 130.964 200.085 130.747 199.526C130.502 198.896 130.098 198.431 129.587 198.078C128.676 197.449 127.439 197.193 126.399 197.176ZM133.633 198.405C134.125 199.671 134.244 201.168 133.947 202.893L133.865 203.371L133.524 203.716C129.267 208.035 126.771 210.442 126.037 211.12L125.9 211.248L120.48 214.248L114.454 207.738L116.931 202.348L125.045 194.143L125.627 194.102C127.164 193.994 129.489 194.247 131.347 195.53C132.305 196.192 133.138 197.131 133.633 198.405Z" fill="white"/>
</g>
<defs>
<filter id="filter0_i_44_450" x="-13.3121" y="0.00585938" width="214.174" height="303.229" filterUnits="userSpaceOnUse" color-interpolation-filters="sRGB">
<feFlood flood-opacity="0" result="BackgroundImageFix"/>
<feBlend mode="normal" in="SourceGraphic" in2="BackgroundImageFix" result="shape"/>
<feColorMatrix in="SourceAlpha" type="matrix" values="0 0 0 0 0 0 0 0 0 0 0 0 0 0 0 0 0 0 127 0" result="hardAlpha"/>
<feOffset dx="-13.8033"/>
<feGaussianBlur stdDeviation="8.90539"/>
<feComposite in2="hardAlpha" operator="arithmetic" k2="-1" k3="1"/>
<feColorMatrix type="matrix" values="0 0 0 0 0 0 0 0 0 0 0 0 0 0 0 0 0 0 0.25 0"/>
<feBlend mode="normal" in2="shape" result="effect1_innerShadow_44_450"/>
</filter>
</defs>
</svg>
