<svg width="201" height="305" viewBox="0 0 201 305" fill="none" xmlns="http://www.w3.org/2000/svg">
<g filter="url(#filter0_i_44_534)">
<rect x="64.5898" y="0.789062" width="65.0093" height="90.8349" rx="32.5047" fill="#C4C4C4"/>
<path d="M115.35 30.6213C115.35 40.7038 107.176 48.8773 97.0939 48.8773C87.0114 48.8773 78.8379 40.7038 78.8379 30.6213C78.8379 20.5387 87.0114 12.3652 97.0939 12.3652C107.176 12.3652 115.35 20.5387 115.35 30.6213Z" fill="#6B738F"/>
<path d="M93.955 17.6878C95.4882 15.5233 98.7002 15.5233 100.233 17.6878V17.6878C101.089 18.8954 102.561 19.5053 104.02 19.2562V19.2562C106.635 18.8099 108.906 21.0811 108.46 23.6957V23.6957C108.21 25.1546 108.82 26.6269 110.028 27.4823V27.4823C112.192 29.0155 112.192 32.2276 110.028 33.7607V33.7607C108.82 34.6162 108.21 36.0885 108.46 37.5474V37.5474C108.906 40.162 106.635 42.4332 104.02 41.9869V41.9869C102.561 41.7378 101.089 42.3477 100.233 43.5553V43.5553C98.7002 45.7198 95.4882 45.7198 93.955 43.5553V43.5553C93.0996 42.3477 91.6272 41.7378 90.1684 41.9869V41.9869C87.5538 42.4332 85.2825 40.162 85.7289 37.5474V37.5474C85.978 36.0885 85.3681 34.6162 84.1604 33.7607V33.7607C81.996 32.2276 81.996 29.0155 84.1604 27.4823V27.4823C85.3681 26.6269 85.978 25.1546 85.7289 23.6957V23.6957C85.2825 21.0811 87.5538 18.8099 90.1684 19.2562V19.2562C91.6272 19.5053 93.0996 18.8954 93.955 17.6878V17.6878Z" fill="#C4C4C4"/>
<path fill-rule="evenodd" clip-rule="evenodd" d="M92.6416 88.9531V204.278H101.547V88.9531H92.6416Z" fill="#6B738F"/>
<path fill-rule="evenodd" clip-rule="evenodd" d="M162.548 93.4058H31.6392V199.825H162.548V93.4058ZM27.1865 88.9531V204.278H167.001V88.9531H27.1865Z" fill="#353F58"/>
<path d="M17.8359 177.117H177.242V258.156C177.242 276.6 162.291 291.551 143.847 291.551H51.2312C32.7875 291.551 17.8359 276.6 17.8359 258.156V177.117Z" fill="#8783A0"/>
<path d="M51.2361 291.551H148.74L152.752 304.018H47.2236L51.2361 291.551Z" fill="#E7EAC6"/>
<path fill-rule="evenodd" clip-rule="evenodd" d="M200.842 105.874C200.842 76.3639 155.987 52.4414 100.656 52.4414C45.3253 52.4414 0.470703 76.3639 0.470703 105.874H200.842Z" fill="#E2E0CD"/>
<path fill-rule="evenodd" clip-rule="evenodd" d="M177.243 105.874C177.243 76.3639 142.356 52.4414 99.3206 52.4414C56.2854 52.4414 21.3984 76.3639 21.3984 105.874H177.243Z" fill="#8783A0"/>
<path fill-rule="evenodd" clip-rule="evenodd" d="M160.767 105.874C160.767 76.3639 132.359 52.4414 97.3161 52.4414C62.2732 52.4414 33.8652 76.3639 33.8652 105.874H160.767Z" fill="#E2E0CD"/>
<path fill-rule="evenodd" clip-rule="evenodd" d="M58.8008 105.874H136.723C136.723 76.3639 119.279 52.4414 97.7618 52.4414C76.2442 52.4414 58.8008 76.3639 58.8008 105.874Z" fill="#8783A0"/>
<path fill-rule="evenodd" clip-rule="evenodd" d="M79.2832 105.874H114.905C114.905 76.3639 106.931 52.4414 97.094 52.4414C87.2574 52.4414 79.2832 76.3639 79.2832 105.874Z" fill="#E2E0CD"/>
<path d="M114.905 52.6635C114.905 55.9833 106.931 58.6746 97.094 58.6746C87.2574 58.6746 79.2832 55.9833 79.2832 52.6635C79.2832 49.3436 87.2574 46.6523 97.094 46.6523C106.931 46.6523 114.905 49.3436 114.905 52.6635Z" fill="#E7EAC6"/>
<path fill-rule="evenodd" clip-rule="evenodd" d="M124.656 243.479C124.297 243.479 124.007 243.77 124.007 244.128L124.007 255.886C124.007 256.245 124.297 256.536 124.656 256.536C125.015 256.536 125.306 256.245 125.306 255.886L125.306 244.128C125.306 243.77 125.015 243.479 124.656 243.479Z" fill="black"/>
<path fill-rule="evenodd" clip-rule="evenodd" d="M106.102 232.444C99.4421 232.156 93.712 228.251 90.798 222.629L68.8712 259.369C67.8017 261.161 68.2559 263.481 69.9224 264.737L73.1651 267.182C74.9104 268.498 77.3733 268.193 78.7412 266.49L106.102 232.444Z" fill="white"/>
<path d="M74.202 215.276C74.202 216.63 72.8136 217.727 71.101 217.727C69.3884 217.727 68 216.63 68 215.276C68 213.922 69.3884 212.824 71.101 212.824C72.8136 212.824 74.202 213.922 74.202 215.276Z" fill="black"/>
<path d="M116.317 258.481C116.317 259.835 114.891 260.932 113.132 260.932C111.373 260.932 109.947 259.835 109.947 258.481C109.947 257.127 111.373 256.029 113.132 256.029C114.891 256.029 116.317 257.127 116.317 258.481Z" fill="black"/>
<path d="M125.327 255.84C125.327 257.194 123.901 258.292 122.142 258.292C120.383 258.292 118.957 257.194 118.957 255.84C118.957 254.486 120.383 253.389 122.142 253.389C123.901 253.389 125.327 254.486 125.327 255.84Z" fill="black"/>
<path fill-rule="evenodd" clip-rule="evenodd" d="M73.566 215.949C73.9247 215.953 74.2187 215.666 74.2226 215.307L74.3638 202.313C74.3677 201.955 74.08 201.661 73.7213 201.657C73.3626 201.653 73.0687 201.941 73.0648 202.299L72.9236 215.293C72.9197 215.652 73.2073 215.946 73.566 215.949Z" fill="black"/>
<path fill-rule="evenodd" clip-rule="evenodd" d="M115.687 245.887C115.329 245.887 115.038 246.178 115.038 246.536L115.038 258.294C115.038 258.653 115.329 258.944 115.687 258.944C116.046 258.944 116.337 258.653 116.337 258.294L116.337 246.536C116.337 246.178 116.046 245.887 115.687 245.887Z" fill="black"/>
<path d="M74.2438 207.671C72.631 206.027 72.8373 202.668 73.8037 201.72C73.8037 202.181 75.6476 203.207 77.4496 204.654C78.8325 205.764 79.8256 207.627 79.1257 209.578C76.7945 216.073 78.7276 208.237 74.2438 207.671Z" fill="black"/>
<path d="M115.103 246.557C115.103 246.179 115.355 245.848 115.72 245.749L124.268 243.413C124.802 243.267 125.327 243.669 125.327 244.221V247.819C125.327 248.197 125.075 248.528 124.71 248.628L116.162 250.964C115.628 251.11 115.103 250.708 115.103 250.155V246.557Z" fill="black"/>
<path fill-rule="evenodd" clip-rule="evenodd" d="M117.79 224.731C119.769 222.538 121.113 219.734 121.491 216.578C122.465 208.455 116.669 201.08 108.545 200.107C101.848 199.304 95.6594 203.103 93.1479 209.015C93.8218 210.444 94.7135 211.875 95.823 213.306C96.9513 214.762 98.2532 216.14 99.7285 217.441C101.194 218.704 102.774 219.823 104.468 220.799C106.163 221.775 107.936 222.586 109.788 223.233C111.629 223.842 113.463 224.269 115.288 224.514C116.147 224.63 116.981 224.702 117.79 224.731ZM115.42 226.85C112.515 228.936 108.851 229.982 105.02 229.523C96.8969 228.55 91.101 221.176 92.0745 213.052C92.134 212.556 92.2175 212.068 92.3236 211.589C92.3762 211.715 92.4301 211.84 92.4853 211.965C93.5483 214.318 94.9653 216.504 96.7363 218.523C98.497 220.504 100.552 222.17 102.9 223.522C105.224 224.861 107.697 225.801 110.318 226.343C112.038 226.681 113.739 226.85 115.42 226.85Z" fill="white"/>
</g>
<defs>
<filter id="filter0_i_44_534" x="-13.3326" y="0.789062" width="214.174" height="303.229" filterUnits="userSpaceOnUse" color-interpolation-filters="sRGB">
<feFlood flood-opacity="0" result="BackgroundImageFix"/>
<feBlend mode="normal" in="SourceGraphic" in2="BackgroundImageFix" result="shape"/>
<feColorMatrix in="SourceAlpha" type="matrix" values="0 0 0 0 0 0 0 0 0 0 0 0 0 0 0 0 0 0 127 0" result="hardAlpha"/>
<feOffset dx="-13.8033"/>
<feGaussianBlur stdDeviation="8.90539"/>
<feComposite in2="hardAlpha" operator="arithmetic" k2="-1" k3="1"/>
<feColorMatrix type="matrix" values="0 0 0 0 0 0 0 0 0 0 0 0 0 0 0 0 0 0 0.25 0"/>
<feBlend mode="normal" in2="shape" result="effect1_innerShadow_44_534"/>
</filter>
</defs>
</svg>
