<svg width="202" height="304" viewBox="0 0 202 304" fill="none" xmlns="http://www.w3.org/2000/svg">
<g filter="url(#filter0_i_44_478)">
<rect x="65.0215" y="0.482422" width="65.0093" height="90.8349" rx="32.5047" fill="#C4C4C4"/>
<path d="M115.782 30.3166C115.782 40.3991 107.608 48.5726 97.5256 48.5726C87.443 48.5726 79.2695 40.3991 79.2695 30.3166C79.2695 20.2341 87.443 12.0605 97.5256 12.0605C107.608 12.0605 115.782 20.2341 115.782 30.3166Z" fill="#6B738F"/>
<path d="M94.3866 17.3831C95.9198 15.2187 99.1319 15.2187 100.665 17.3831V17.3831C101.52 18.5907 102.993 19.2006 104.452 18.9516V18.9516C107.066 18.5052 109.338 20.7765 108.891 23.3911V23.3911C108.642 24.8499 109.252 26.3222 110.46 27.1777V27.1777C112.624 28.7108 112.624 31.9229 110.46 33.4561V33.4561C109.252 34.3115 108.642 35.7838 108.891 37.2427V37.2427C109.338 39.8573 107.066 42.1285 104.452 41.6822V41.6822C102.993 41.4331 101.52 42.043 100.665 43.2506V43.2506C99.1319 45.4151 95.9198 45.4151 94.3866 43.2506V43.2506C93.5312 42.043 92.0589 41.4331 90.6 41.6822V41.6822C87.9854 42.1285 85.7142 39.8573 86.1605 37.2427V37.2427C86.4096 35.7838 85.7997 34.3115 84.5921 33.4561V33.4561C82.4276 31.9229 82.4276 28.7108 84.5921 27.1777V27.1777C85.7997 26.3222 86.4096 24.8499 86.1605 23.3911V23.3911C85.7142 20.7765 87.9854 18.5052 90.6 18.9516V18.9516C92.0589 19.2006 93.5312 18.5907 94.3866 17.3831V17.3831Z" fill="#C4C4C4"/>
<path fill-rule="evenodd" clip-rule="evenodd" d="M93.0732 88.6445V203.969H101.979V88.6445H93.0732Z" fill="#6B738F"/>
<path fill-rule="evenodd" clip-rule="evenodd" d="M162.981 93.0972H32.0718V199.517H162.981V93.0972ZM27.6191 88.6445V203.969H167.434V88.6445H27.6191Z" fill="#353F58"/>
<path d="M18.2676 176.807H177.674V257.846C177.674 276.289 162.722 291.241 144.279 291.241H51.6628C33.2192 291.241 18.2676 276.289 18.2676 257.846V176.807Z" fill="#5C5B80"/>
<path d="M51.6678 291.24H149.172L153.184 303.708H47.6553L51.6678 291.24Z" fill="#E7EAC6"/>
<path fill-rule="evenodd" clip-rule="evenodd" d="M201.275 105.565C201.275 76.0553 156.42 52.1328 101.089 52.1328C45.7579 52.1328 0.90332 76.0553 0.90332 105.565H201.275Z" fill="#E2E0CD"/>
<path fill-rule="evenodd" clip-rule="evenodd" d="M177.675 105.565C177.675 76.0553 142.788 52.1328 99.7532 52.1328C56.718 52.1328 21.8311 76.0553 21.8311 105.565H177.675Z" fill="#5C5B80"/>
<path fill-rule="evenodd" clip-rule="evenodd" d="M161.2 105.565C161.2 76.0553 132.792 52.1328 97.7487 52.1328C62.7058 52.1328 34.2979 76.0553 34.2979 105.565H161.2Z" fill="#E2E0CD"/>
<path fill-rule="evenodd" clip-rule="evenodd" d="M59.2334 105.565H137.156C137.156 76.0553 119.712 52.1328 98.1945 52.1328C76.6769 52.1328 59.2334 76.0553 59.2334 105.565Z" fill="#5C5B80"/>
<path fill-rule="evenodd" clip-rule="evenodd" d="M79.7158 105.565H115.337C115.337 76.0553 107.363 52.1328 97.5266 52.1328C87.69 52.1328 79.7158 76.0553 79.7158 105.565Z" fill="#E2E0CD"/>
<path d="M115.336 52.3549C115.336 55.6747 107.362 58.366 97.5256 58.366C87.689 58.366 79.7148 55.6747 79.7148 52.3549C79.7148 49.035 87.689 46.3438 97.5256 46.3438C107.362 46.3438 115.336 49.035 115.336 52.3549Z" fill="#E7EAC6"/>
<path d="M99.3751 216.232C99.3751 222.512 94.9598 227.603 89.5132 227.603C84.0667 227.603 79.6514 222.512 79.6514 216.232C79.6514 209.952 84.0667 204.861 89.5132 204.861C94.9598 204.861 99.3751 209.952 99.3751 216.232Z" fill="white"/>
<path d="M113.827 210.561C118.29 212.41 120.139 218.182 117.955 223.453C115.772 228.725 110.383 231.499 105.92 229.65C101.456 227.802 99.608 222.029 101.791 216.758C103.975 211.487 109.363 208.712 113.827 210.561Z" fill="white"/>
<path d="M128.971 241.004C125.953 244.665 120.784 245.387 117.424 242.618C114.065 239.848 113.788 234.636 116.805 230.975C119.822 227.315 124.992 226.593 128.351 229.362C131.711 232.131 131.988 237.344 128.971 241.004Z" fill="white"/>
<path d="M79.9966 224.786C81.7243 229.665 79.5759 234.877 75.198 236.427C70.8201 237.977 65.8705 235.279 64.1429 230.4C62.4152 225.521 64.5636 220.31 68.9415 218.759C73.3194 217.209 78.269 219.907 79.9966 224.786Z" fill="white"/>
<path d="M117.131 253.837C114.394 266.348 105.567 264.646 94.4948 260.891C85.8788 262.154 75.8942 268.594 71.8933 253.837C69.4259 244.735 86.3877 226.602 94.2491 228.936C103.637 225.848 117.131 244.407 117.131 253.837Z" fill="white"/>
</g>
<defs>
<filter id="filter0_i_44_478" x="-12.901" y="0.482422" width="214.175" height="303.229" filterUnits="userSpaceOnUse" color-interpolation-filters="sRGB">
<feFlood flood-opacity="0" result="BackgroundImageFix"/>
<feBlend mode="normal" in="SourceGraphic" in2="BackgroundImageFix" result="shape"/>
<feColorMatrix in="SourceAlpha" type="matrix" values="0 0 0 0 0 0 0 0 0 0 0 0 0 0 0 0 0 0 127 0" result="hardAlpha"/>
<feOffset dx="-13.8033"/>
<feGaussianBlur stdDeviation="8.90539"/>
<feComposite in2="hardAlpha" operator="arithmetic" k2="-1" k3="1"/>
<feColorMatrix type="matrix" values="0 0 0 0 0 0 0 0 0 0 0 0 0 0 0 0 0 0 0.25 0"/>
<feBlend mode="normal" in2="shape" result="effect1_innerShadow_44_478"/>
</filter>
</defs>
</svg>
