<svg width="613" height="598" viewBox="0 0 613 598" fill="none" xmlns="http://www.w3.org/2000/svg">
<g clip-path="url(#clip0_199_5)">
<path d="M531 494.662H417.05L379.644 403.385C383.566 401.506 387.421 399.467 391.218 397.275C399.499 404.408 409.706 408.162 420.019 408.162C431.374 408.162 442.73 403.842 451.367 395.197C467.847 378.717 468.426 352.494 453.484 335.095C460.871 322.302 466.468 308.825 470.199 294.825C493.051 293.067 511.168 274.122 511.168 250.829C511.168 227.536 493.051 208.591 470.199 206.837C466.469 192.837 460.871 179.357 453.484 166.567C468.425 149.169 467.847 122.946 451.367 106.465C434.883 89.9733 408.617 89.3953 391.219 104.387C378.446 97.0044 364.981 91.4072 350.996 87.6642C349.258 64.7932 330.305 46.6602 307 46.6602C283.695 46.6602 264.738 64.7972 263.004 87.6642C249.008 91.3986 235.539 96.9923 222.77 104.367C205.372 89.3902 179.118 89.9692 162.637 106.457C146.164 122.93 145.578 149.137 160.5 166.535C153.133 179.301 147.539 192.789 143.793 206.832C120.945 208.598 102.832 227.539 102.832 250.828C102.832 274.117 120.941 293.058 143.789 294.82C147.535 308.863 153.129 322.355 160.496 335.117C145.574 352.515 146.16 378.722 162.633 395.195C171.274 403.839 182.625 408.16 193.981 408.16C204.286 408.16 214.489 404.41 222.766 397.285C226.563 399.476 230.418 401.519 234.336 403.398L196.902 494.664L83.0019 494.66C77.8457 494.66 73.6699 498.84 73.6699 503.992C73.6699 509.149 77.8496 513.324 83.0019 513.324H203.142C203.15 513.324 203.158 513.328 203.165 513.328C203.177 513.328 203.185 513.324 203.197 513.324H410.767C410.778 513.324 410.786 513.328 410.798 513.328C410.806 513.328 410.813 513.324 410.821 513.324L531.001 513.328C536.158 513.328 540.333 509.149 540.333 503.996C540.333 498.84 536.158 494.66 531.001 494.66L531 494.662ZM348.45 395.357C343.243 381.306 331.231 370.568 316.337 367.357V304.806C317.188 304.657 318.04 304.517 318.88 304.329L355.314 393.227C353.044 393.997 350.755 394.7 348.451 395.356L348.45 395.357ZM258.684 393.247L295.153 304.333C295.981 304.521 296.825 304.661 297.672 304.806V367.357C282.774 370.568 270.762 381.31 265.555 395.365C263.251 394.713 260.958 394.017 258.684 393.248L258.684 393.247ZM218.008 326.626C205.196 318.353 189.086 317.462 175.465 323.736C169.879 313.701 165.512 303.185 162.418 292.291C176.496 287.095 187.262 275.072 190.477 260.158H253.028C254.438 268.326 257.637 275.877 262.243 282.388L218.008 326.626ZM193.988 182.126C202.363 182.126 210.722 179.74 218.008 175.032L262.242 219.266C257.636 225.778 254.433 233.328 253.027 241.496H190.476C187.261 226.582 176.496 214.562 162.417 209.363C165.515 198.468 169.878 187.953 175.464 177.918C181.339 180.625 187.632 182.125 193.987 182.125L193.988 182.126ZM297.668 134.302V196.853C289.5 198.263 281.949 201.463 275.438 206.068L231.2 161.83C239.458 149.037 240.36 132.959 234.122 119.346C244.173 113.744 254.684 109.385 265.556 106.291C270.759 120.35 282.771 131.092 297.669 134.303L297.668 134.302ZM348.449 106.29C359.308 109.388 369.816 113.763 379.871 119.368C373.64 132.977 374.547 149.048 382.801 161.837L338.563 206.075C332.051 201.466 324.501 198.263 316.333 196.853V134.302C331.231 131.091 343.247 120.345 348.45 106.29L348.449 106.29ZM438.519 177.935C444.124 187.994 448.484 198.509 451.574 209.373C437.504 214.572 426.746 226.592 423.535 241.498H360.984C359.574 233.33 356.375 225.779 351.769 219.268L396.003 175.034C403.288 179.737 411.648 182.128 420.023 182.128C426.359 182.128 432.648 180.636 438.519 177.937L438.519 177.935ZM395.996 326.635L351.762 282.401C356.367 275.89 359.571 268.339 360.977 260.171H423.528C426.743 275.081 437.501 287.097 451.571 292.296C448.485 303.159 444.118 313.675 438.512 323.734C424.899 317.473 408.801 318.367 395.996 326.637L395.996 326.635ZM320.726 284.248C320.71 284.256 320.699 284.272 320.683 284.276C316.456 286.014 311.843 287.002 306.999 287.002C287.058 287.002 270.831 270.779 270.831 250.834C270.831 230.893 287.054 214.666 306.999 214.666C326.94 214.666 343.167 230.889 343.167 250.834C343.167 265.869 333.94 278.768 320.858 284.221C320.811 284.241 320.768 284.229 320.725 284.249L320.726 284.248ZM306.999 384.998C321.155 384.998 332.667 396.51 332.667 410.666C332.667 424.822 321.155 436.334 306.999 436.334C292.843 436.334 281.331 424.822 281.331 410.666C281.331 396.51 292.843 384.998 306.999 384.998ZM336.128 297.205C336.952 296.686 337.769 296.154 338.562 295.592L382.799 339.83C374.546 352.619 373.639 368.685 379.87 382.295C377.46 383.639 375.026 384.912 372.565 386.111L336.128 297.205ZM438.168 382.002C428.164 392.006 411.883 392.014 401.867 382.002C391.859 371.994 391.859 355.713 401.867 345.701C406.871 340.697 413.441 338.197 420.015 338.197C426.589 338.197 433.163 340.697 438.167 345.701C448.175 355.709 448.175 371.994 438.167 382.002H438.168ZM492.5 250.832C492.5 264.988 480.988 276.5 466.832 276.5C452.676 276.5 441.164 264.988 441.164 250.832C441.164 236.676 452.676 225.164 466.832 225.164C480.988 225.164 492.5 236.676 492.5 250.832V250.832ZM420.016 112.152C426.59 112.152 433.164 114.652 438.168 119.656C448.176 129.664 448.176 145.945 438.168 155.957C428.164 165.965 411.883 165.965 401.867 155.957C391.859 145.949 391.859 129.668 401.867 119.656C406.875 114.656 413.445 112.152 420.015 112.152H420.016ZM306.996 65.3283C321.152 65.3283 332.664 76.8403 332.664 90.9963C332.664 105.152 321.152 116.664 306.996 116.664C292.84 116.664 281.328 105.152 281.328 90.9963C281.328 76.8403 292.84 65.3283 306.996 65.3283V65.3283ZM175.826 119.66C180.83 114.656 187.4 112.156 193.978 112.156C200.548 112.156 207.123 114.656 212.126 119.66C222.134 129.668 222.134 145.949 212.126 155.961C202.118 165.973 185.837 165.973 175.825 155.961C165.817 145.949 165.817 129.668 175.825 119.66H175.826ZM121.494 250.83C121.494 236.674 133.006 225.162 147.162 225.162C161.318 225.162 172.83 236.674 172.83 250.83C172.83 264.986 161.318 276.498 147.162 276.498C133.006 276.494 121.494 264.982 121.494 250.83V250.83ZM175.826 382C165.818 371.992 165.818 355.711 175.826 345.699C180.83 340.695 187.4 338.195 193.978 338.195C200.548 338.195 207.123 340.695 212.126 345.699C222.134 355.707 222.134 371.988 212.126 382C202.118 392.016 185.833 392.008 175.825 382H175.826ZM234.115 382.313C240.353 368.7 239.451 352.625 231.193 339.829L275.431 295.591C276.232 296.157 277.052 296.688 277.884 297.212L241.419 386.122C238.954 384.927 236.525 383.653 234.114 382.313L234.115 382.313ZM251.592 410.516C255.354 411.82 259.158 412.969 262.998 413.992C264.732 436.863 283.689 454.996 306.994 454.996C330.306 454.996 349.264 436.851 350.994 413.973C354.83 412.946 358.627 411.801 362.377 410.497L396.869 494.661L217.079 494.665L251.592 410.516Z" fill="black"/>
</g>
<defs>
<clipPath id="clip0_199_5">
<rect width="700" height="700" fill="white" transform="translate(-43)"/>
</clipPath>
</defs>
</svg>
