<svg width="1557" height="614" viewBox="0 0 1557 614" fill="none" xmlns="http://www.w3.org/2000/svg">
<g clip-path="url(#clip0_239_3)">
<g filter="url(#filter0_i_239_3)">
<path d="M833.728 457.723C759.334 530.62 575.791 600.913 498.297 613.93L1087.25 613.932C1040.75 596.575 938.462 499.378 901.265 457.723C870.268 457.723 864.726 470.74 833.728 457.723Z" fill="#424E78"/>
</g>
<g filter="url(#filter1_ii_239_3)">
<path fill-rule="evenodd" clip-rule="evenodd" d="M262.209 273.955C258.81 273.955 256.054 276.711 256.054 280.111V295.329C256.054 304.381 253.946 313.309 249.898 321.405L177.635 465.931C164.434 492.334 157.561 521.447 157.561 550.966H120.626C120.626 515.713 128.834 480.944 144.599 449.413L216.862 304.887C218.346 301.919 219.119 298.647 219.119 295.329V280.111C219.119 256.312 238.411 237.02 262.209 237.02C286.008 237.02 305.3 256.312 305.3 280.111V295.329C305.3 298.647 306.073 301.919 307.557 304.887L379.82 449.413C395.585 480.944 403.793 515.713 403.793 550.966H366.858C366.858 521.447 359.985 492.334 346.784 465.931L274.521 321.405C270.473 313.309 268.365 304.381 268.365 295.329V280.111C268.365 276.711 265.609 273.955 262.209 273.955Z" fill="#434E78"/>
<path d="M286.832 280.111C286.832 293.71 275.808 304.734 262.209 304.734C248.61 304.734 237.586 293.71 237.586 280.111C237.586 266.511 248.61 255.487 262.209 255.487C275.808 255.487 286.832 266.511 286.832 280.111Z" fill="#9EA7C6"/>
<path fill-rule="evenodd" clip-rule="evenodd" d="M336.078 405.689H188.339V400.765H336.078V405.689Z" fill="#434E78"/>
<path fill-rule="evenodd" clip-rule="evenodd" d="M360.702 454.935L163.716 454.935V450.011L360.702 450.011V454.935Z" fill="#434E78"/>
<path fill-rule="evenodd" clip-rule="evenodd" d="M385.325 504.182L139.093 504.182V499.257L385.325 499.257V504.182Z" fill="#434E78"/>
</g>
<g filter="url(#filter2_i_239_3)">
<path d="M222.35 531.722C143.295 516.889 46.3346 536.794 3.89572 549.648C1.57005 550.352 0 552.507 0 554.937V669.341C0 672.422 2.49775 674.92 5.57889 674.92H1044.01C1481.5 651 1603 619.5 1603 586.292C1598 542.5 1574.02 537.569 1044.52 550.843C1044.18 550.852 1043.85 550.889 1043.51 550.961C1009.22 558.292 928.656 575.445 876.663 586.292C811.36 599.915 677.407 565.407 560.38 572.669C517.209 575.347 519.139 564.25 505.371 559.045C480.48 549.637 480.73 530.574 464.067 527.36C411.045 517.132 303.93 547.029 222.35 531.722Z" fill="#434E78"/>
</g>
<path d="M123.83 527.779L143.282 526.708L162.22 526.402L80.4663 627.735H41.5615L123.83 527.779Z" fill="url(#paint0_linear_239_3)"/>
<path d="M371.53 529.617L390.982 527.78L409.148 526.249L253.535 626.051H214.63L371.53 529.617Z" fill="url(#paint1_linear_239_3)"/>
</g>
<defs>
<filter id="filter0_i_239_3" x="472.938" y="457.723" width="614.312" height="162.549" filterUnits="userSpaceOnUse" color-interpolation-filters="sRGB">
<feFlood flood-opacity="0" result="BackgroundImageFix"/>
<feBlend mode="normal" in="SourceGraphic" in2="BackgroundImageFix" result="shape"/>
<feColorMatrix in="SourceAlpha" type="matrix" values="0 0 0 0 0 0 0 0 0 0 0 0 0 0 0 0 0 0 127 0" result="hardAlpha"/>
<feOffset dx="-25.3586" dy="6.33966"/>
<feGaussianBlur stdDeviation="15.8491"/>
<feComposite in2="hardAlpha" operator="arithmetic" k2="-1" k3="1"/>
<feColorMatrix type="matrix" values="0 0 0 0 0.442806 0 0 0 0 0.497855 0 0 0 0 0.690528 0 0 0 1 0"/>
<feBlend mode="normal" in2="shape" result="effect1_innerShadow_239_3"/>
</filter>
<filter id="filter1_ii_239_3" x="115.554" y="237.02" width="307.258" height="314.453" filterUnits="userSpaceOnUse" color-interpolation-filters="sRGB">
<feFlood flood-opacity="0" result="BackgroundImageFix"/>
<feBlend mode="normal" in="SourceGraphic" in2="BackgroundImageFix" result="shape"/>
<feColorMatrix in="SourceAlpha" type="matrix" values="0 0 0 0 0 0 0 0 0 0 0 0 0 0 0 0 0 0 127 0" result="hardAlpha"/>
<feOffset dx="-7.60759" dy="0.507172"/>
<feGaussianBlur stdDeviation="2.53586"/>
<feComposite in2="hardAlpha" operator="arithmetic" k2="-1" k3="1"/>
<feColorMatrix type="matrix" values="0 0 0 0 1 0 0 0 0 1 0 0 0 0 1 0 0 0 0.25 0"/>
<feBlend mode="normal" in2="shape" result="effect1_innerShadow_239_3"/>
<feColorMatrix in="SourceAlpha" type="matrix" values="0 0 0 0 0 0 0 0 0 0 0 0 0 0 0 0 0 0 127 0" result="hardAlpha"/>
<feOffset dx="19.7797" dy="0.507172"/>
<feGaussianBlur stdDeviation="9.50948"/>
<feComposite in2="hardAlpha" operator="arithmetic" k2="-1" k3="1"/>
<feColorMatrix type="matrix" values="0 0 0 0 0 0 0 0 0 0 0 0 0 0 0 0 0 0 0.25 0"/>
<feBlend mode="normal" in2="effect1_innerShadow_239_3" result="effect2_innerShadow_239_3"/>
</filter>
<filter id="filter2_i_239_3" x="-6.33966" y="525.177" width="1609.34" height="156.082" filterUnits="userSpaceOnUse" color-interpolation-filters="sRGB">
<feFlood flood-opacity="0" result="BackgroundImageFix"/>
<feBlend mode="normal" in="SourceGraphic" in2="BackgroundImageFix" result="shape"/>
<feColorMatrix in="SourceAlpha" type="matrix" values="0 0 0 0 0 0 0 0 0 0 0 0 0 0 0 0 0 0 127 0" result="hardAlpha"/>
<feOffset dx="-6.33966" dy="6.33966"/>
<feGaussianBlur stdDeviation="6.33966"/>
<feComposite in2="hardAlpha" operator="arithmetic" k2="-1" k3="1"/>
<feColorMatrix type="matrix" values="0 0 0 0 0.442806 0 0 0 0 0.497855 0 0 0 0 0.690528 0 0 0 1 0"/>
<feBlend mode="normal" in2="shape" result="effect1_innerShadow_239_3"/>
</filter>
<linearGradient id="paint0_linear_239_3" x1="143.282" y1="526.861" x2="143.363" y2="594.11" gradientUnits="userSpaceOnUse">
<stop offset="0.0001" stop-opacity="0.5"/>
<stop offset="1" stop-opacity="0"/>
</linearGradient>
<linearGradient id="paint1_linear_239_3" x1="390.982" y1="528.698" x2="391.063" y2="595.947" gradientUnits="userSpaceOnUse">
<stop offset="0.0001" stop-opacity="0.5"/>
<stop offset="1" stop-opacity="0"/>
</linearGradient>
<clipPath id="clip0_239_3">
<rect width="1557" height="614" fill="white"/>
</clipPath>
</defs>
</svg>
